<mxfile host="Electron" modified="2023-06-18T12:43:29.853Z" agent="Mozilla/5.0 (Windows NT 10.0; Win64; x64) AppleWebKit/537.36 (KHTML, like Gecko) draw.io/21.2.8 Chrome/112.0.5615.165 Electron/24.2.0 Safari/537.36" etag="Bh5AoB9-BMN31VbYwTZ-" version="21.2.8" type="device">
  <diagram name="Page-1" id="cxeBOrwpK8nN50zcZmI6">
    <mxGraphModel dx="291" dy="1680" grid="1" gridSize="10" guides="1" tooltips="1" connect="1" arrows="1" fold="1" page="0" pageScale="1" pageWidth="850" pageHeight="1100" math="0" shadow="0">
      <root>
        <mxCell id="0" />
        <mxCell id="1" parent="0" />
        <mxCell id="Z0ikh39LYSVqTTAxaPjd-20" value="&lt;font style=&quot;font-size: 14px;&quot;&gt;PIN INDEX CHECK&lt;/font&gt;" style="swimlane;whiteSpace=wrap;html=1;rounded=1;fontSize=16;fontFamily=Calibri;fillColor=#ffe6cc;strokeColor=#d79b00;arcSize=22;" parent="1" vertex="1">
          <mxGeometry x="1696" y="-214" width="440" height="530" as="geometry">
            <mxRectangle x="-207" y="152.5" width="134" height="31" as="alternateBounds" />
          </mxGeometry>
        </mxCell>
        <UserObject label="&lt;div style=&quot;font-size: 1px&quot;&gt;&lt;font style=&quot;font-size: 11.29px; direction: ltr; letter-spacing: 0px; line-height: 120%; opacity: 1;&quot;&gt;START&lt;/font&gt;&lt;/div&gt;" Function="EN_DIO_Error_T DIO_init(uint8_t pinNumber, EN_DIO_PORT_T portNumber, EN_DIO_DIRECTION_T direction);" tags="Flowchart" id="Z0ikh39LYSVqTTAxaPjd-1">
          <mxCell style="verticalAlign=middle;align=center;overflow=width;vsdxID=30;fillColor=#dae8fc;shape=stencil(tVLREoIgEPwaHnEQxsl3s/9gEpSJwDko7e+DsEkze2l627vdu5uFRaxyHe8FosR5sCcxqMZ3iO0Rpcp0ApQPCLEasUpaEC3Yi2lS3fOojOhsr3HDmObyMtsVcYqS29Qh5FEfklwrM5OXeUa/yjkcAwfr7TDpiyTfXvjkMR+Vw2A998qaBac5tAKHU1hq3i4oNwjRr9ofvayt/+Rk+yX/4iWA159KpXWKxJx/z0Bopfyw+g4=);strokeColor=#6c8ebf;spacingTop=-1;spacingBottom=-1;spacingLeft=-1;spacingRight=-1;points=[[0.5,1,0],[0.5,0,0],[0,0.5,0],[1,0.5,0]];labelBackgroundColor=none;rounded=1;html=1;whiteSpace=wrap;fontFamily=Calibri;" parent="Z0ikh39LYSVqTTAxaPjd-20" vertex="1">
            <mxGeometry x="83.00999999999999" y="50" width="101" height="38" as="geometry" />
          </mxCell>
        </UserObject>
        <mxCell id="Z0ikh39LYSVqTTAxaPjd-2" value="pin_num = .pin_index % 10" style="rounded=0;whiteSpace=wrap;html=1;fontSize=11.26;fillColor=#d5e8d4;strokeColor=#82b366;fontFamily=Calibri;" parent="Z0ikh39LYSVqTTAxaPjd-20" vertex="1">
          <mxGeometry x="62.379999999999995" y="111" width="142.25" height="30.5" as="geometry" />
        </mxCell>
        <mxCell id="Z0ikh39LYSVqTTAxaPjd-8" style="edgeStyle=orthogonalEdgeStyle;rounded=0;orthogonalLoop=1;jettySize=auto;html=1;exitX=0.5;exitY=1;exitDx=0;exitDy=0;exitPerimeter=0;entryX=0.5;entryY=0;entryDx=0;entryDy=0;" parent="Z0ikh39LYSVqTTAxaPjd-20" source="Z0ikh39LYSVqTTAxaPjd-1" target="Z0ikh39LYSVqTTAxaPjd-2" edge="1">
          <mxGeometry relative="1" as="geometry" />
        </mxCell>
        <mxCell id="Z0ikh39LYSVqTTAxaPjd-3" value="port_num = .pin_index / 10" style="rounded=0;whiteSpace=wrap;html=1;fontSize=11.26;fillColor=#d5e8d4;strokeColor=#82b366;fontFamily=Calibri;" parent="Z0ikh39LYSVqTTAxaPjd-20" vertex="1">
          <mxGeometry x="62.379999999999995" y="162.5" width="142.25" height="30.5" as="geometry" />
        </mxCell>
        <mxCell id="Z0ikh39LYSVqTTAxaPjd-9" style="edgeStyle=orthogonalEdgeStyle;rounded=0;orthogonalLoop=1;jettySize=auto;html=1;exitX=0.5;exitY=1;exitDx=0;exitDy=0;entryX=0.5;entryY=0;entryDx=0;entryDy=0;" parent="Z0ikh39LYSVqTTAxaPjd-20" source="Z0ikh39LYSVqTTAxaPjd-2" target="Z0ikh39LYSVqTTAxaPjd-3" edge="1">
          <mxGeometry relative="1" as="geometry" />
        </mxCell>
        <UserObject label="if port_num &amp;lt;= 5 &lt;br&gt;|| pin_num &amp;lt;= 7&amp;nbsp;" Function="EN_DIO_Error_T DIO_init(uint8_t pinNumber, EN_DIO_PORT_T portNumber, EN_DIO_DIRECTION_T direction);" tags="Flowchart" id="Z0ikh39LYSVqTTAxaPjd-5">
          <mxCell style="vsdxID=219;fillColor=#fff2cc;shape=stencil(UzV2Ls5ILEhVNTIoLinKz04tz0wpyVA1dlE1MsrMy0gtyiwBslSNXVWNndPyi1LTi/JL81Ig/IJEkEoQKze/DGRCBUSfAUiHkUElhGcK4bpBVOZk5iGpNEVVikeloQHZpsK0YlWLz1QgA+HFtMycHEgIIcujBwlQCBKcxq4A);strokeColor=#d6b656;spacingTop=-1;spacingBottom=-1;spacingLeft=-1;spacingRight=-1;points=[[0,0.5,0],[1,0.5,0],[0.5,0,0],[0.5,1,0]];labelBackgroundColor=none;rounded=1;html=1;whiteSpace=wrap;fontFamily=Calibri;fontSize=11.29;" parent="Z0ikh39LYSVqTTAxaPjd-20" vertex="1">
            <mxGeometry x="78.01999999999998" y="230" width="110.99" height="76" as="geometry" />
          </mxCell>
        </UserObject>
        <mxCell id="Z0ikh39LYSVqTTAxaPjd-10" style="edgeStyle=orthogonalEdgeStyle;rounded=0;orthogonalLoop=1;jettySize=auto;html=1;exitX=0.5;exitY=1;exitDx=0;exitDy=0;entryX=0.5;entryY=0;entryDx=0;entryDy=0;entryPerimeter=0;" parent="Z0ikh39LYSVqTTAxaPjd-20" source="Z0ikh39LYSVqTTAxaPjd-3" target="Z0ikh39LYSVqTTAxaPjd-5" edge="1">
          <mxGeometry relative="1" as="geometry" />
        </mxCell>
        <UserObject label="if (port_num == 5 &amp;amp;&amp;amp; pin_num &amp;lt;= 4)&lt;br&gt;|| (port_num == 4 &amp;amp;&amp;amp;pin_num &amp;lt;= 5)" Function="EN_DIO_Error_T DIO_init(uint8_t pinNumber, EN_DIO_PORT_T portNumber, EN_DIO_DIRECTION_T direction);" tags="Flowchart" id="Z0ikh39LYSVqTTAxaPjd-6">
          <mxCell style="vsdxID=219;fillColor=#fff2cc;shape=stencil(UzV2Ls5ILEhVNTIoLinKz04tz0wpyVA1dlE1MsrMy0gtyiwBslSNXVWNndPyi1LTi/JL81Ig/IJEkEoQKze/DGRCBUSfAUiHkUElhGcK4bpBVOZk5iGpNEVVikeloQHZpsK0YlWLz1QgA+HFtMycHEgIIcujBwlQCBKcxq4A);strokeColor=#d6b656;spacingTop=-1;spacingBottom=-1;spacingLeft=-1;spacingRight=-1;points=[[0,0.5,0],[1,0.5,0],[0.5,0,0],[0.5,1,0]];labelBackgroundColor=none;rounded=1;html=1;whiteSpace=wrap;fontFamily=Calibri;fontSize=11.29;" parent="Z0ikh39LYSVqTTAxaPjd-20" vertex="1">
            <mxGeometry x="18" y="350" width="231" height="76" as="geometry" />
          </mxCell>
        </UserObject>
        <mxCell id="Z0ikh39LYSVqTTAxaPjd-11" value="true" style="edgeStyle=orthogonalEdgeStyle;rounded=0;orthogonalLoop=1;jettySize=auto;html=1;exitX=0.5;exitY=1;exitDx=0;exitDy=0;exitPerimeter=0;entryX=0.5;entryY=0;entryDx=0;entryDy=0;entryPerimeter=0;fontFamily=Calibri;" parent="Z0ikh39LYSVqTTAxaPjd-20" source="Z0ikh39LYSVqTTAxaPjd-5" target="Z0ikh39LYSVqTTAxaPjd-6" edge="1">
          <mxGeometry relative="1" as="geometry" />
        </mxCell>
        <UserObject label="&lt;div style=&quot;font-size: 1px&quot;&gt;&lt;font style=&quot;font-size: 11.29px; direction: ltr; letter-spacing: 0px; line-height: 120%; opacity: 1;&quot;&gt;GPIO_INVALID_PIN_INDEX&lt;/font&gt;&lt;/div&gt;" Function="EN_DIO_Error_T DIO_init(uint8_t pinNumber, EN_DIO_PORT_T portNumber, EN_DIO_DIRECTION_T direction);" tags="Flowchart" id="Z0ikh39LYSVqTTAxaPjd-13">
          <mxCell style="verticalAlign=middle;align=center;overflow=width;vsdxID=52;fillColor=#f8cecc;shape=stencil(tVLREoIgEPwaHnEQxsl3s/9gEpSJwDko7e+DsEkze2l627vdu5uFRaxyHe8FosR5sCcxqMZ3iO0Rpcp0ApQPCLEasUpaEC3Yi2lS3fOojOhsr3HDmObyMtsVcYqS29Qh5FEfklwrM5OXeUa/yjkcAwfr7TDpiyTfXvjkMR+Vw2A998qaBac5tAKHU1hq3i4oNwjRr9ofvayt/+Rk+yX/4iWA159KpXWKxJx/z0Bopfyw+g4=);strokeColor=#b85450;spacingTop=-1;spacingBottom=-1;spacingLeft=-1;spacingRight=-1;points=[[0.5,1,0],[0.5,0,0],[0,0.5,0],[1,0.5,0]];labelBackgroundColor=none;rounded=1;html=1;whiteSpace=wrap;fontFamily=Calibri;" parent="Z0ikh39LYSVqTTAxaPjd-20" vertex="1">
            <mxGeometry x="293.01" y="452.5" width="140" height="38" as="geometry" />
          </mxCell>
        </UserObject>
        <mxCell id="Z0ikh39LYSVqTTAxaPjd-19" value="false" style="edgeStyle=orthogonalEdgeStyle;rounded=0;orthogonalLoop=1;jettySize=auto;html=1;exitX=1;exitY=0.5;exitDx=0;exitDy=0;exitPerimeter=0;entryX=0.5;entryY=0;entryDx=0;entryDy=0;entryPerimeter=0;fontFamily=Calibri;" parent="Z0ikh39LYSVqTTAxaPjd-20" source="Z0ikh39LYSVqTTAxaPjd-5" target="Z0ikh39LYSVqTTAxaPjd-13" edge="1">
          <mxGeometry x="-0.5872" relative="1" as="geometry">
            <mxPoint as="offset" />
          </mxGeometry>
        </mxCell>
        <mxCell id="Z0ikh39LYSVqTTAxaPjd-17" value="false" style="edgeStyle=orthogonalEdgeStyle;rounded=0;orthogonalLoop=1;jettySize=auto;html=1;exitX=1;exitY=0.5;exitDx=0;exitDy=0;exitPerimeter=0;entryX=0.5;entryY=0;entryDx=0;entryDy=0;entryPerimeter=0;fontFamily=Calibri;" parent="Z0ikh39LYSVqTTAxaPjd-20" source="Z0ikh39LYSVqTTAxaPjd-6" target="Z0ikh39LYSVqTTAxaPjd-13" edge="1">
          <mxGeometry x="-0.3949" relative="1" as="geometry">
            <mxPoint as="offset" />
          </mxGeometry>
        </mxCell>
        <mxCell id="Z0ikh39LYSVqTTAxaPjd-15" value="DO A SPECIFIC FUNCTION" style="rounded=0;whiteSpace=wrap;html=1;fontSize=11.26;fillColor=#d5e8d4;strokeColor=#82b366;fontFamily=Calibri;" parent="Z0ikh39LYSVqTTAxaPjd-20" vertex="1">
          <mxGeometry x="62.389999999999986" y="460" width="142.25" height="30.5" as="geometry" />
        </mxCell>
        <mxCell id="Z0ikh39LYSVqTTAxaPjd-16" value="true" style="edgeStyle=orthogonalEdgeStyle;rounded=0;orthogonalLoop=1;jettySize=auto;html=1;exitX=0.5;exitY=1;exitDx=0;exitDy=0;exitPerimeter=0;entryX=0.5;entryY=0;entryDx=0;entryDy=0;fontFamily=Calibri;" parent="Z0ikh39LYSVqTTAxaPjd-20" source="Z0ikh39LYSVqTTAxaPjd-6" target="Z0ikh39LYSVqTTAxaPjd-15" edge="1">
          <mxGeometry relative="1" as="geometry" />
        </mxCell>
        <mxCell id="Z0ikh39LYSVqTTAxaPjd-23" style="edgeStyle=orthogonalEdgeStyle;rounded=0;orthogonalLoop=1;jettySize=auto;html=1;entryX=0.5;entryY=0;entryDx=0;entryDy=0;" parent="1" source="Z0ikh39LYSVqTTAxaPjd-21" target="Z0ikh39LYSVqTTAxaPjd-22" edge="1">
          <mxGeometry relative="1" as="geometry" />
        </mxCell>
        <UserObject label="&lt;div style=&quot;font-size: 1px&quot;&gt;&lt;font style=&quot;font-size: 11.29px; direction: ltr; letter-spacing: 0px; line-height: 120%; opacity: 1;&quot;&gt;START&lt;/font&gt;&lt;/div&gt;" Function="EN_DIO_Error_T DIO_init(uint8_t pinNumber, EN_DIO_PORT_T portNumber, EN_DIO_DIRECTION_T direction);" tags="Flowchart" id="Z0ikh39LYSVqTTAxaPjd-21">
          <mxCell style="verticalAlign=middle;align=center;overflow=width;vsdxID=30;fillColor=#dae8fc;shape=stencil(tVLREoIgEPwaHnEQxsl3s/9gEpSJwDko7e+DsEkze2l627vdu5uFRaxyHe8FosR5sCcxqMZ3iO0Rpcp0ApQPCLEasUpaEC3Yi2lS3fOojOhsr3HDmObyMtsVcYqS29Qh5FEfklwrM5OXeUa/yjkcAwfr7TDpiyTfXvjkMR+Vw2A998qaBac5tAKHU1hq3i4oNwjRr9ofvayt/+Rk+yX/4iWA159KpXWKxJx/z0Bopfyw+g4=);strokeColor=#6c8ebf;spacingTop=-1;spacingBottom=-1;spacingLeft=-1;spacingRight=-1;points=[[0.5,1,0],[0.5,0,0],[0,0.5,0],[1,0.5,0]];labelBackgroundColor=none;rounded=1;html=1;whiteSpace=wrap;fontFamily=Calibri;" parent="1" vertex="1">
            <mxGeometry x="220" y="-800" width="101" height="38" as="geometry" />
          </mxCell>
        </UserObject>
        <mxCell id="Z0ikh39LYSVqTTAxaPjd-25" style="edgeStyle=orthogonalEdgeStyle;rounded=0;orthogonalLoop=1;jettySize=auto;html=1;exitX=0.5;exitY=1;exitDx=0;exitDy=0;entryX=0.5;entryY=0;entryDx=0;entryDy=0;entryPerimeter=0;" parent="1" source="Z0ikh39LYSVqTTAxaPjd-22" target="Z0ikh39LYSVqTTAxaPjd-24" edge="1">
          <mxGeometry relative="1" as="geometry" />
        </mxCell>
        <mxCell id="Z0ikh39LYSVqTTAxaPjd-22" value="&lt;font face=&quot;Calibri&quot; style=&quot;font-size: 11.26px;&quot;&gt;PIN INDEX CHECK&lt;/font&gt;" style="shape=process;whiteSpace=wrap;html=1;backgroundOutline=1;fontSize=16;fillColor=#ffe6cc;strokeColor=#d79b00;" parent="1" vertex="1">
          <mxGeometry x="212.5" y="-742" width="116" height="46" as="geometry" />
        </mxCell>
        <mxCell id="Z0ikh39LYSVqTTAxaPjd-28" value="true" style="edgeStyle=orthogonalEdgeStyle;rounded=0;orthogonalLoop=1;jettySize=auto;html=1;exitX=0.5;exitY=1;exitDx=0;exitDy=0;exitPerimeter=0;entryX=0.5;entryY=0;entryDx=0;entryDy=0;fontFamily=Calibri;" parent="1" source="Z0ikh39LYSVqTTAxaPjd-24" target="Z0ikh39LYSVqTTAxaPjd-26" edge="1">
          <mxGeometry relative="1" as="geometry" />
        </mxCell>
        <UserObject label="check if gpio clock &lt;br&gt;disabled for the port" Function="EN_DIO_Error_T DIO_init(uint8_t pinNumber, EN_DIO_PORT_T portNumber, EN_DIO_DIRECTION_T direction);" tags="Flowchart" id="Z0ikh39LYSVqTTAxaPjd-24">
          <mxCell style="vsdxID=219;fillColor=#fff2cc;shape=stencil(UzV2Ls5ILEhVNTIoLinKz04tz0wpyVA1dlE1MsrMy0gtyiwBslSNXVWNndPyi1LTi/JL81Ig/IJEkEoQKze/DGRCBUSfAUiHkUElhGcK4bpBVOZk5iGpNEVVikeloQHZpsK0YlWLz1QgA+HFtMycHEgIIcujBwlQCBKcxq4A);strokeColor=#d6b656;spacingTop=-1;spacingBottom=-1;spacingLeft=-1;spacingRight=-1;points=[[0,0.5,0],[1,0.5,0],[0.5,0,0],[0.5,1,0]];labelBackgroundColor=none;rounded=1;html=1;whiteSpace=wrap;fontFamily=Calibri;fontSize=11.29;" parent="1" vertex="1">
            <mxGeometry x="205.5" y="-674.5" width="130" height="76" as="geometry" />
          </mxCell>
        </UserObject>
        <mxCell id="Z0ikh39LYSVqTTAxaPjd-31" style="edgeStyle=orthogonalEdgeStyle;rounded=0;orthogonalLoop=1;jettySize=auto;html=1;exitX=0.5;exitY=1;exitDx=0;exitDy=0;entryX=0.5;entryY=0;entryDx=0;entryDy=0;entryPerimeter=0;" parent="1" source="Z0ikh39LYSVqTTAxaPjd-26" target="Z0ikh39LYSVqTTAxaPjd-30" edge="1">
          <mxGeometry relative="1" as="geometry" />
        </mxCell>
        <mxCell id="Z0ikh39LYSVqTTAxaPjd-26" value="Enable clock for gpio port used" style="rounded=0;whiteSpace=wrap;html=1;fontSize=11.26;fillColor=#d5e8d4;strokeColor=#82b366;fontFamily=Calibri;" parent="1" vertex="1">
          <mxGeometry x="194.69" y="-573" width="151.63" height="23" as="geometry" />
        </mxCell>
        <mxCell id="Z0ikh39LYSVqTTAxaPjd-33" value="true" style="edgeStyle=orthogonalEdgeStyle;rounded=0;orthogonalLoop=1;jettySize=auto;html=1;exitX=0.5;exitY=1;exitDx=0;exitDy=0;exitPerimeter=0;entryX=0.5;entryY=0;entryDx=0;entryDy=0;fontFamily=Calibri;" parent="1" source="Z0ikh39LYSVqTTAxaPjd-30" target="Z0ikh39LYSVqTTAxaPjd-32" edge="1">
          <mxGeometry relative="1" as="geometry" />
        </mxCell>
        <mxCell id="Z0ikh39LYSVqTTAxaPjd-57" value="false" style="edgeStyle=orthogonalEdgeStyle;rounded=0;orthogonalLoop=1;jettySize=auto;html=1;exitX=1;exitY=0.5;exitDx=0;exitDy=0;exitPerimeter=0;entryX=0.5;entryY=0;entryDx=0;entryDy=0;entryPerimeter=0;fontFamily=Calibri;" parent="1" source="Z0ikh39LYSVqTTAxaPjd-30" target="Z0ikh39LYSVqTTAxaPjd-56" edge="1">
          <mxGeometry x="-0.8844" y="-1" relative="1" as="geometry">
            <mxPoint x="1" as="offset" />
          </mxGeometry>
        </mxCell>
        <UserObject label="if .pin_direction == GPIO_OUTPUT" Function="EN_DIO_Error_T DIO_init(uint8_t pinNumber, EN_DIO_PORT_T portNumber, EN_DIO_DIRECTION_T direction);" tags="Flowchart" id="Z0ikh39LYSVqTTAxaPjd-30">
          <mxCell style="vsdxID=219;fillColor=#fff2cc;shape=stencil(UzV2Ls5ILEhVNTIoLinKz04tz0wpyVA1dlE1MsrMy0gtyiwBslSNXVWNndPyi1LTi/JL81Ig/IJEkEoQKze/DGRCBUSfAUiHkUElhGcK4bpBVOZk5iGpNEVVikeloQHZpsK0YlWLz1QgA+HFtMycHEgIIcujBwlQCBKcxq4A);strokeColor=#d6b656;spacingTop=-1;spacingBottom=-1;spacingLeft=-1;spacingRight=-1;points=[[0,0.5,0],[1,0.5,0],[0.5,0,0],[0.5,1,0]];labelBackgroundColor=none;rounded=1;html=1;whiteSpace=wrap;fontFamily=Calibri;fontSize=11.29;" parent="1" vertex="1">
            <mxGeometry x="172.75" y="-531.5" width="195.5" height="40" as="geometry" />
          </mxCell>
        </UserObject>
        <mxCell id="Z0ikh39LYSVqTTAxaPjd-37" style="edgeStyle=orthogonalEdgeStyle;rounded=0;orthogonalLoop=1;jettySize=auto;html=1;exitX=0.5;exitY=1;exitDx=0;exitDy=0;entryX=0.5;entryY=0;entryDx=0;entryDy=0;entryPerimeter=0;" parent="1" source="Z0ikh39LYSVqTTAxaPjd-32" target="Z0ikh39LYSVqTTAxaPjd-35" edge="1">
          <mxGeometry relative="1" as="geometry" />
        </mxCell>
        <mxCell id="Z0ikh39LYSVqTTAxaPjd-32" value="Set pin direction output" style="rounded=0;whiteSpace=wrap;html=1;fontSize=11.26;fillColor=#d5e8d4;strokeColor=#82b366;fontFamily=Calibri;" parent="1" vertex="1">
          <mxGeometry x="199.37" y="-471" width="142.25" height="20" as="geometry" />
        </mxCell>
        <mxCell id="Z0ikh39LYSVqTTAxaPjd-39" value="true" style="edgeStyle=orthogonalEdgeStyle;rounded=0;orthogonalLoop=1;jettySize=auto;html=1;exitX=0.5;exitY=1;exitDx=0;exitDy=0;exitPerimeter=0;entryX=0.5;entryY=0;entryDx=0;entryDy=0;fontFamily=Calibri;" parent="1" source="Z0ikh39LYSVqTTAxaPjd-35" target="Z0ikh39LYSVqTTAxaPjd-38" edge="1">
          <mxGeometry relative="1" as="geometry" />
        </mxCell>
        <mxCell id="Z0ikh39LYSVqTTAxaPjd-53" value="false" style="edgeStyle=orthogonalEdgeStyle;rounded=0;orthogonalLoop=1;jettySize=auto;html=1;exitX=1;exitY=0.5;exitDx=0;exitDy=0;exitPerimeter=0;entryX=0.5;entryY=0;entryDx=0;entryDy=0;" parent="1" source="Z0ikh39LYSVqTTAxaPjd-35" target="Z0ikh39LYSVqTTAxaPjd-52" edge="1">
          <mxGeometry relative="1" as="geometry" />
        </mxCell>
        <UserObject label="if .pin_mode == GPIO_DIO" Function="EN_DIO_Error_T DIO_init(uint8_t pinNumber, EN_DIO_PORT_T portNumber, EN_DIO_DIRECTION_T direction);" tags="Flowchart" id="Z0ikh39LYSVqTTAxaPjd-35">
          <mxCell style="vsdxID=219;fillColor=#fff2cc;shape=stencil(UzV2Ls5ILEhVNTIoLinKz04tz0wpyVA1dlE1MsrMy0gtyiwBslSNXVWNndPyi1LTi/JL81Ig/IJEkEoQKze/DGRCBUSfAUiHkUElhGcK4bpBVOZk5iGpNEVVikeloQHZpsK0YlWLz1QgA+HFtMycHEgIIcujBwlQCBKcxq4A);strokeColor=#d6b656;spacingTop=-1;spacingBottom=-1;spacingLeft=-1;spacingRight=-1;points=[[0,0.5,0],[1,0.5,0],[0.5,0,0],[0.5,1,0]];labelBackgroundColor=none;rounded=1;html=1;whiteSpace=wrap;fontFamily=Calibri;fontSize=11.29;" parent="1" vertex="1">
            <mxGeometry x="172.75" y="-434.5" width="195.5" height="40" as="geometry" />
          </mxCell>
        </UserObject>
        <mxCell id="Z0ikh39LYSVqTTAxaPjd-41" style="edgeStyle=orthogonalEdgeStyle;rounded=0;orthogonalLoop=1;jettySize=auto;html=1;exitX=0.5;exitY=1;exitDx=0;exitDy=0;entryX=0.5;entryY=0;entryDx=0;entryDy=0;entryPerimeter=0;" parent="1" source="Z0ikh39LYSVqTTAxaPjd-38" target="Z0ikh39LYSVqTTAxaPjd-40" edge="1">
          <mxGeometry relative="1" as="geometry" />
        </mxCell>
        <mxCell id="Z0ikh39LYSVqTTAxaPjd-38" value="Clear alternative function register" style="rounded=0;whiteSpace=wrap;html=1;fontSize=11.26;fillColor=#d5e8d4;strokeColor=#82b366;fontFamily=Calibri;" parent="1" vertex="1">
          <mxGeometry x="191.01" y="-373" width="158.99" height="20" as="geometry" />
        </mxCell>
        <mxCell id="Z0ikh39LYSVqTTAxaPjd-43" value="case GPIO_2mA" style="edgeStyle=orthogonalEdgeStyle;rounded=0;orthogonalLoop=1;jettySize=auto;html=1;exitX=0;exitY=0.5;exitDx=0;exitDy=0;exitPerimeter=0;entryX=0.5;entryY=0;entryDx=0;entryDy=0;fontFamily=Calibri;" parent="1" source="Z0ikh39LYSVqTTAxaPjd-40" target="Z0ikh39LYSVqTTAxaPjd-42" edge="1">
          <mxGeometry x="0.763" relative="1" as="geometry">
            <mxPoint as="offset" />
          </mxGeometry>
        </mxCell>
        <mxCell id="Z0ikh39LYSVqTTAxaPjd-46" value="case GPIO_4mA" style="edgeStyle=orthogonalEdgeStyle;rounded=0;orthogonalLoop=1;jettySize=auto;html=1;exitX=0;exitY=0.5;exitDx=0;exitDy=0;exitPerimeter=0;entryX=0.5;entryY=0;entryDx=0;entryDy=0;fontFamily=Calibri;" parent="1" source="Z0ikh39LYSVqTTAxaPjd-40" target="Z0ikh39LYSVqTTAxaPjd-45" edge="1">
          <mxGeometry x="0.7879" relative="1" as="geometry">
            <Array as="points">
              <mxPoint x="153" y="-312" />
              <mxPoint x="153" y="-280" />
              <mxPoint x="225" y="-280" />
            </Array>
            <mxPoint as="offset" />
          </mxGeometry>
        </mxCell>
        <mxCell id="Z0ikh39LYSVqTTAxaPjd-48" value="case GPIO_8mA" style="edgeStyle=orthogonalEdgeStyle;rounded=0;orthogonalLoop=1;jettySize=auto;html=1;exitX=0;exitY=0.5;exitDx=0;exitDy=0;exitPerimeter=0;entryX=0.5;entryY=0;entryDx=0;entryDy=0;fontFamily=Calibri;" parent="1" source="Z0ikh39LYSVqTTAxaPjd-40" target="Z0ikh39LYSVqTTAxaPjd-47" edge="1">
          <mxGeometry x="0.8817" relative="1" as="geometry">
            <Array as="points">
              <mxPoint x="153" y="-312" />
              <mxPoint x="153" y="-280" />
              <mxPoint x="352" y="-280" />
            </Array>
            <mxPoint as="offset" />
          </mxGeometry>
        </mxCell>
        <mxCell id="Z0ikh39LYSVqTTAxaPjd-51" value="default" style="edgeStyle=orthogonalEdgeStyle;rounded=0;orthogonalLoop=1;jettySize=auto;html=1;exitX=0;exitY=0.5;exitDx=0;exitDy=0;exitPerimeter=0;entryX=0.5;entryY=0;entryDx=0;entryDy=0;entryPerimeter=0;fontFamily=Calibri;" parent="1" source="Z0ikh39LYSVqTTAxaPjd-40" target="Z0ikh39LYSVqTTAxaPjd-50" edge="1">
          <mxGeometry x="0.9208" relative="1" as="geometry">
            <Array as="points">
              <mxPoint x="153" y="-312" />
              <mxPoint x="153" y="-280" />
              <mxPoint x="530" y="-280" />
            </Array>
            <mxPoint as="offset" />
          </mxGeometry>
        </mxCell>
        <UserObject label="switch on .pin_output_current" Function="EN_DIO_Error_T DIO_init(uint8_t pinNumber, EN_DIO_PORT_T portNumber, EN_DIO_DIRECTION_T direction);" tags="Flowchart" id="Z0ikh39LYSVqTTAxaPjd-40">
          <mxCell style="vsdxID=219;fillColor=#fff2cc;shape=stencil(UzV2Ls5ILEhVNTIoLinKz04tz0wpyVA1dlE1MsrMy0gtyiwBslSNXVWNndPyi1LTi/JL81Ig/IJEkEoQKze/DGRCBUSfAUiHkUElhGcK4bpBVOZk5iGpNEVVikeloQHZpsK0YlWLz1QgA+HFtMycHEgIIcujBwlQCBKcxq4A);strokeColor=#d6b656;spacingTop=-1;spacingBottom=-1;spacingLeft=-1;spacingRight=-1;points=[[0,0.5,0],[1,0.5,0],[0.5,0,0],[0.5,1,0]];labelBackgroundColor=none;rounded=1;html=1;whiteSpace=wrap;fontFamily=Calibri;fontSize=11.29;" parent="1" vertex="1">
            <mxGeometry x="172.75" y="-332" width="195.5" height="40" as="geometry" />
          </mxCell>
        </UserObject>
        <mxCell id="Z0ikh39LYSVqTTAxaPjd-81" style="edgeStyle=orthogonalEdgeStyle;rounded=0;orthogonalLoop=1;jettySize=auto;html=1;exitX=0.5;exitY=1;exitDx=0;exitDy=0;entryX=0.5;entryY=0;entryDx=0;entryDy=0;" parent="1" source="Z0ikh39LYSVqTTAxaPjd-42" target="Z0ikh39LYSVqTTAxaPjd-80" edge="1">
          <mxGeometry relative="1" as="geometry" />
        </mxCell>
        <mxCell id="Z0ikh39LYSVqTTAxaPjd-42" value="set GPIODR2R for current pin" style="rounded=0;whiteSpace=wrap;html=1;fontSize=11.26;fillColor=#d5e8d4;strokeColor=#82b366;fontFamily=Calibri;" parent="1" vertex="1">
          <mxGeometry x="46.51" y="-243" width="103.49" height="33" as="geometry" />
        </mxCell>
        <mxCell id="Z0ikh39LYSVqTTAxaPjd-85" style="edgeStyle=orthogonalEdgeStyle;rounded=0;orthogonalLoop=1;jettySize=auto;html=1;exitX=0.5;exitY=1;exitDx=0;exitDy=0;entryX=0.5;entryY=0;entryDx=0;entryDy=0;" parent="1" source="Z0ikh39LYSVqTTAxaPjd-45" target="Z0ikh39LYSVqTTAxaPjd-80" edge="1">
          <mxGeometry relative="1" as="geometry" />
        </mxCell>
        <mxCell id="Z0ikh39LYSVqTTAxaPjd-45" value="set GPIODR4R for current pin" style="rounded=0;whiteSpace=wrap;html=1;fontSize=11.26;fillColor=#d5e8d4;strokeColor=#82b366;fontFamily=Calibri;" parent="1" vertex="1">
          <mxGeometry x="172.75" y="-243" width="103.49" height="33" as="geometry" />
        </mxCell>
        <mxCell id="Z0ikh39LYSVqTTAxaPjd-84" style="edgeStyle=orthogonalEdgeStyle;rounded=0;orthogonalLoop=1;jettySize=auto;html=1;exitX=0.5;exitY=1;exitDx=0;exitDy=0;entryX=0.5;entryY=0;entryDx=0;entryDy=0;" parent="1" source="Z0ikh39LYSVqTTAxaPjd-47" target="Z0ikh39LYSVqTTAxaPjd-80" edge="1">
          <mxGeometry relative="1" as="geometry" />
        </mxCell>
        <mxCell id="Z0ikh39LYSVqTTAxaPjd-47" value="set GPIODR8R for current pin" style="rounded=0;whiteSpace=wrap;html=1;fontSize=11.26;fillColor=#d5e8d4;strokeColor=#82b366;fontFamily=Calibri;" parent="1" vertex="1">
          <mxGeometry x="300" y="-243" width="103.49" height="33" as="geometry" />
        </mxCell>
        <UserObject label="&lt;div style=&quot;font-size: 1px&quot;&gt;&lt;font style=&quot;font-size: 11.29px; direction: ltr; letter-spacing: 0px; line-height: 120%; opacity: 1;&quot;&gt;GPIO_INVALID_OP_CURRENT&lt;/font&gt;&lt;/div&gt;" Function="EN_DIO_Error_T DIO_init(uint8_t pinNumber, EN_DIO_PORT_T portNumber, EN_DIO_DIRECTION_T direction);" tags="Flowchart" id="Z0ikh39LYSVqTTAxaPjd-50">
          <mxCell style="verticalAlign=middle;align=center;overflow=width;vsdxID=52;fillColor=#f8cecc;shape=stencil(tVLREoIgEPwaHnEQxsl3s/9gEpSJwDko7e+DsEkze2l627vdu5uFRaxyHe8FosR5sCcxqMZ3iO0Rpcp0ApQPCLEasUpaEC3Yi2lS3fOojOhsr3HDmObyMtsVcYqS29Qh5FEfklwrM5OXeUa/yjkcAwfr7TDpiyTfXvjkMR+Vw2A998qaBac5tAKHU1hq3i4oNwjRr9ofvayt/+Rk+yX/4iWA159KpXWKxJx/z0Bopfyw+g4=);strokeColor=#b85450;spacingTop=-1;spacingBottom=-1;spacingLeft=-1;spacingRight=-1;points=[[0.5,1,0],[0.5,0,0],[0,0.5,0],[1,0.5,0]];labelBackgroundColor=none;rounded=1;html=1;whiteSpace=wrap;fontFamily=Calibri;" parent="1" vertex="1">
            <mxGeometry x="440" y="-241.5" width="180" height="30" as="geometry" />
          </mxCell>
        </UserObject>
        <mxCell id="Z0ikh39LYSVqTTAxaPjd-55" style="edgeStyle=orthogonalEdgeStyle;rounded=0;orthogonalLoop=1;jettySize=auto;html=1;exitX=0.5;exitY=1;exitDx=0;exitDy=0;entryX=0.5;entryY=0;entryDx=0;entryDy=0;entryPerimeter=0;" parent="1" source="Z0ikh39LYSVqTTAxaPjd-52" target="Z0ikh39LYSVqTTAxaPjd-40" edge="1">
          <mxGeometry relative="1" as="geometry">
            <Array as="points">
              <mxPoint x="469" y="-340" />
              <mxPoint x="271" y="-340" />
            </Array>
          </mxGeometry>
        </mxCell>
        <mxCell id="Z0ikh39LYSVqTTAxaPjd-52" value="set the alternative function" style="rounded=0;whiteSpace=wrap;html=1;fontSize=11.26;fillColor=#d5e8d4;strokeColor=#82b366;fontFamily=Calibri;" parent="1" vertex="1">
          <mxGeometry x="390" y="-373" width="157.99" height="20" as="geometry" />
        </mxCell>
        <mxCell id="Z0ikh39LYSVqTTAxaPjd-66" value="true" style="edgeStyle=orthogonalEdgeStyle;rounded=0;orthogonalLoop=1;jettySize=auto;html=1;exitX=0.5;exitY=1;exitDx=0;exitDy=0;exitPerimeter=0;entryX=0.5;entryY=0;entryDx=0;entryDy=0;fontFamily=Calibri;" parent="1" source="Z0ikh39LYSVqTTAxaPjd-56" target="Z0ikh39LYSVqTTAxaPjd-60" edge="1">
          <mxGeometry relative="1" as="geometry" />
        </mxCell>
        <UserObject label="if .pin_direction == GPIO_INPUT" Function="EN_DIO_Error_T DIO_init(uint8_t pinNumber, EN_DIO_PORT_T portNumber, EN_DIO_DIRECTION_T direction);" tags="Flowchart" id="Z0ikh39LYSVqTTAxaPjd-56">
          <mxCell style="vsdxID=219;fillColor=#fff2cc;shape=stencil(UzV2Ls5ILEhVNTIoLinKz04tz0wpyVA1dlE1MsrMy0gtyiwBslSNXVWNndPyi1LTi/JL81Ig/IJEkEoQKze/DGRCBUSfAUiHkUElhGcK4bpBVOZk5iGpNEVVikeloQHZpsK0YlWLz1QgA+HFtMycHEgIIcujBwlQCBKcxq4A);strokeColor=#d6b656;spacingTop=-1;spacingBottom=-1;spacingLeft=-1;spacingRight=-1;points=[[0,0.5,0],[1,0.5,0],[0.5,0,0],[0.5,1,0]];labelBackgroundColor=none;rounded=1;html=1;whiteSpace=wrap;fontFamily=Calibri;fontSize=11.29;" parent="1" vertex="1">
            <mxGeometry x="680" y="-531.5" width="195.5" height="40" as="geometry" />
          </mxCell>
        </UserObject>
        <mxCell id="Z0ikh39LYSVqTTAxaPjd-59" style="edgeStyle=orthogonalEdgeStyle;rounded=0;orthogonalLoop=1;jettySize=auto;html=1;exitX=0.5;exitY=1;exitDx=0;exitDy=0;entryX=0.5;entryY=0;entryDx=0;entryDy=0;entryPerimeter=0;" parent="1" source="Z0ikh39LYSVqTTAxaPjd-60" target="Z0ikh39LYSVqTTAxaPjd-63" edge="1">
          <mxGeometry relative="1" as="geometry" />
        </mxCell>
        <mxCell id="Z0ikh39LYSVqTTAxaPjd-60" value="Set pin direction input" style="rounded=0;whiteSpace=wrap;html=1;fontSize=11.26;fillColor=#d5e8d4;strokeColor=#82b366;fontFamily=Calibri;" parent="1" vertex="1">
          <mxGeometry x="706.62" y="-471" width="142.25" height="20" as="geometry" />
        </mxCell>
        <mxCell id="Z0ikh39LYSVqTTAxaPjd-61" value="true" style="edgeStyle=orthogonalEdgeStyle;rounded=0;orthogonalLoop=1;jettySize=auto;html=1;exitX=0.5;exitY=1;exitDx=0;exitDy=0;exitPerimeter=0;entryX=0.5;entryY=0;entryDx=0;entryDy=0;fontFamily=Calibri;" parent="1" source="Z0ikh39LYSVqTTAxaPjd-63" target="Z0ikh39LYSVqTTAxaPjd-64" edge="1">
          <mxGeometry relative="1" as="geometry" />
        </mxCell>
        <mxCell id="Z0ikh39LYSVqTTAxaPjd-62" value="false" style="edgeStyle=orthogonalEdgeStyle;rounded=0;orthogonalLoop=1;jettySize=auto;html=1;exitX=1;exitY=0.5;exitDx=0;exitDy=0;exitPerimeter=0;entryX=0.5;entryY=0;entryDx=0;entryDy=0;" parent="1" source="Z0ikh39LYSVqTTAxaPjd-63" target="Z0ikh39LYSVqTTAxaPjd-65" edge="1">
          <mxGeometry relative="1" as="geometry" />
        </mxCell>
        <UserObject label="if .pin_mode == GPIO_DIO" Function="EN_DIO_Error_T DIO_init(uint8_t pinNumber, EN_DIO_PORT_T portNumber, EN_DIO_DIRECTION_T direction);" tags="Flowchart" id="Z0ikh39LYSVqTTAxaPjd-63">
          <mxCell style="vsdxID=219;fillColor=#fff2cc;shape=stencil(UzV2Ls5ILEhVNTIoLinKz04tz0wpyVA1dlE1MsrMy0gtyiwBslSNXVWNndPyi1LTi/JL81Ig/IJEkEoQKze/DGRCBUSfAUiHkUElhGcK4bpBVOZk5iGpNEVVikeloQHZpsK0YlWLz1QgA+HFtMycHEgIIcujBwlQCBKcxq4A);strokeColor=#d6b656;spacingTop=-1;spacingBottom=-1;spacingLeft=-1;spacingRight=-1;points=[[0,0.5,0],[1,0.5,0],[0.5,0,0],[0.5,1,0]];labelBackgroundColor=none;rounded=1;html=1;whiteSpace=wrap;fontFamily=Calibri;fontSize=11.29;" parent="1" vertex="1">
            <mxGeometry x="680" y="-434.5" width="195.5" height="40" as="geometry" />
          </mxCell>
        </UserObject>
        <mxCell id="Z0ikh39LYSVqTTAxaPjd-68" style="edgeStyle=orthogonalEdgeStyle;rounded=0;orthogonalLoop=1;jettySize=auto;html=1;exitX=0.5;exitY=1;exitDx=0;exitDy=0;entryX=0.5;entryY=0;entryDx=0;entryDy=0;entryPerimeter=0;" parent="1" source="Z0ikh39LYSVqTTAxaPjd-64" target="Z0ikh39LYSVqTTAxaPjd-67" edge="1">
          <mxGeometry relative="1" as="geometry" />
        </mxCell>
        <mxCell id="Z0ikh39LYSVqTTAxaPjd-64" value="Clear alternative function register" style="rounded=0;whiteSpace=wrap;html=1;fontSize=11.26;fillColor=#d5e8d4;strokeColor=#82b366;fontFamily=Calibri;" parent="1" vertex="1">
          <mxGeometry x="698.26" y="-373" width="158.99" height="20" as="geometry" />
        </mxCell>
        <mxCell id="Z0ikh39LYSVqTTAxaPjd-78" style="edgeStyle=orthogonalEdgeStyle;rounded=0;orthogonalLoop=1;jettySize=auto;html=1;exitX=0.5;exitY=1;exitDx=0;exitDy=0;entryX=0.5;entryY=0;entryDx=0;entryDy=0;entryPerimeter=0;" parent="1" source="Z0ikh39LYSVqTTAxaPjd-65" target="Z0ikh39LYSVqTTAxaPjd-67" edge="1">
          <mxGeometry relative="1" as="geometry">
            <Array as="points">
              <mxPoint x="976" y="-340" />
              <mxPoint x="778" y="-340" />
            </Array>
          </mxGeometry>
        </mxCell>
        <mxCell id="Z0ikh39LYSVqTTAxaPjd-65" value="set the alternative function" style="rounded=0;whiteSpace=wrap;html=1;fontSize=11.26;fillColor=#d5e8d4;strokeColor=#82b366;fontFamily=Calibri;" parent="1" vertex="1">
          <mxGeometry x="897.25" y="-373" width="157.99" height="20" as="geometry" />
        </mxCell>
        <mxCell id="Z0ikh39LYSVqTTAxaPjd-70" value="case GPIO_PULLDOWN" style="edgeStyle=orthogonalEdgeStyle;rounded=0;orthogonalLoop=1;jettySize=auto;html=1;exitX=0.5;exitY=1;exitDx=0;exitDy=0;exitPerimeter=0;entryX=0.5;entryY=0;entryDx=0;entryDy=0;fontFamily=Calibri;" parent="1" source="Z0ikh39LYSVqTTAxaPjd-67" target="Z0ikh39LYSVqTTAxaPjd-69" edge="1">
          <mxGeometry relative="1" as="geometry" />
        </mxCell>
        <mxCell id="Z0ikh39LYSVqTTAxaPjd-75" value="case GPIO_PULLUP" style="edgeStyle=orthogonalEdgeStyle;rounded=0;orthogonalLoop=1;jettySize=auto;html=1;exitX=0.5;exitY=1;exitDx=0;exitDy=0;exitPerimeter=0;entryX=0.5;entryY=0;entryDx=0;entryDy=0;fontFamily=Calibri;" parent="1" source="Z0ikh39LYSVqTTAxaPjd-67" target="Z0ikh39LYSVqTTAxaPjd-71" edge="1">
          <mxGeometry x="0.738" y="-2" relative="1" as="geometry">
            <Array as="points">
              <mxPoint x="778" y="-280" />
              <mxPoint x="922" y="-280" />
            </Array>
            <mxPoint as="offset" />
          </mxGeometry>
        </mxCell>
        <mxCell id="Z0ikh39LYSVqTTAxaPjd-76" value="case GPIO_OPENDRAIN" style="edgeStyle=orthogonalEdgeStyle;rounded=0;orthogonalLoop=1;jettySize=auto;html=1;exitX=0.5;exitY=1;exitDx=0;exitDy=0;exitPerimeter=0;entryX=0.5;entryY=0;entryDx=0;entryDy=0;fontFamily=Calibri;" parent="1" source="Z0ikh39LYSVqTTAxaPjd-67" target="Z0ikh39LYSVqTTAxaPjd-72" edge="1">
          <mxGeometry x="0.8433" y="-2" relative="1" as="geometry">
            <Array as="points">
              <mxPoint x="778" y="-280" />
              <mxPoint x="1062" y="-280" />
            </Array>
            <mxPoint as="offset" />
          </mxGeometry>
        </mxCell>
        <mxCell id="Z0ikh39LYSVqTTAxaPjd-77" value="case default" style="edgeStyle=orthogonalEdgeStyle;rounded=0;orthogonalLoop=1;jettySize=auto;html=1;exitX=0.5;exitY=1;exitDx=0;exitDy=0;exitPerimeter=0;entryX=0.5;entryY=0;entryDx=0;entryDy=0;entryPerimeter=0;fontFamily=Calibri;" parent="1" source="Z0ikh39LYSVqTTAxaPjd-67" target="Z0ikh39LYSVqTTAxaPjd-73" edge="1">
          <mxGeometry x="0.8981" relative="1" as="geometry">
            <Array as="points">
              <mxPoint x="778" y="-280" />
              <mxPoint x="1240" y="-280" />
            </Array>
            <mxPoint as="offset" />
          </mxGeometry>
        </mxCell>
        <UserObject label="switch on .pin_internal_attach" Function="EN_DIO_Error_T DIO_init(uint8_t pinNumber, EN_DIO_PORT_T portNumber, EN_DIO_DIRECTION_T direction);" tags="Flowchart" id="Z0ikh39LYSVqTTAxaPjd-67">
          <mxCell style="vsdxID=219;fillColor=#fff2cc;shape=stencil(UzV2Ls5ILEhVNTIoLinKz04tz0wpyVA1dlE1MsrMy0gtyiwBslSNXVWNndPyi1LTi/JL81Ig/IJEkEoQKze/DGRCBUSfAUiHkUElhGcK4bpBVOZk5iGpNEVVikeloQHZpsK0YlWLz1QgA+HFtMycHEgIIcujBwlQCBKcxq4A);strokeColor=#d6b656;spacingTop=-1;spacingBottom=-1;spacingLeft=-1;spacingRight=-1;points=[[0,0.5,0],[1,0.5,0],[0.5,0,0],[0.5,1,0]];labelBackgroundColor=none;rounded=1;html=1;whiteSpace=wrap;fontFamily=Calibri;fontSize=11.29;" parent="1" vertex="1">
            <mxGeometry x="680" y="-332" width="195.5" height="40" as="geometry" />
          </mxCell>
        </UserObject>
        <mxCell id="Z0ikh39LYSVqTTAxaPjd-83" style="edgeStyle=orthogonalEdgeStyle;rounded=0;orthogonalLoop=1;jettySize=auto;html=1;exitX=0.5;exitY=1;exitDx=0;exitDy=0;entryX=0.5;entryY=0;entryDx=0;entryDy=0;" parent="1" target="Z0ikh39LYSVqTTAxaPjd-80" edge="1">
          <mxGeometry relative="1" as="geometry">
            <mxPoint x="777.7550000000006" y="-211.99999999999977" as="sourcePoint" />
            <mxPoint x="631.7449999999999" y="-143" as="targetPoint" />
            <Array as="points">
              <mxPoint x="778" y="-177" />
              <mxPoint x="592" y="-177" />
            </Array>
          </mxGeometry>
        </mxCell>
        <mxCell id="Z0ikh39LYSVqTTAxaPjd-69" value="set GPIOPDR for current pin" style="rounded=0;whiteSpace=wrap;html=1;fontSize=11.26;fillColor=#d5e8d4;strokeColor=#82b366;fontFamily=Calibri;" parent="1" vertex="1">
          <mxGeometry x="726.01" y="-245" width="103.49" height="33" as="geometry" />
        </mxCell>
        <mxCell id="Z0ikh39LYSVqTTAxaPjd-87" style="edgeStyle=orthogonalEdgeStyle;rounded=0;orthogonalLoop=1;jettySize=auto;html=1;exitX=0.5;exitY=1;exitDx=0;exitDy=0;entryX=0.5;entryY=0;entryDx=0;entryDy=0;" parent="1" source="Z0ikh39LYSVqTTAxaPjd-71" target="Z0ikh39LYSVqTTAxaPjd-80" edge="1">
          <mxGeometry relative="1" as="geometry" />
        </mxCell>
        <mxCell id="Z0ikh39LYSVqTTAxaPjd-71" value="set GPIOPUR for current pin" style="rounded=0;whiteSpace=wrap;html=1;fontSize=11.26;fillColor=#d5e8d4;strokeColor=#82b366;fontFamily=Calibri;" parent="1" vertex="1">
          <mxGeometry x="870" y="-245" width="103.49" height="33" as="geometry" />
        </mxCell>
        <mxCell id="Z0ikh39LYSVqTTAxaPjd-88" style="edgeStyle=orthogonalEdgeStyle;rounded=0;orthogonalLoop=1;jettySize=auto;html=1;exitX=0.5;exitY=1;exitDx=0;exitDy=0;entryX=0.5;entryY=0;entryDx=0;entryDy=0;" parent="1" source="Z0ikh39LYSVqTTAxaPjd-72" target="Z0ikh39LYSVqTTAxaPjd-80" edge="1">
          <mxGeometry relative="1" as="geometry" />
        </mxCell>
        <mxCell id="Z0ikh39LYSVqTTAxaPjd-72" value="set GPIOODR for current pin" style="rounded=0;whiteSpace=wrap;html=1;fontSize=11.26;fillColor=#d5e8d4;strokeColor=#82b366;fontFamily=Calibri;" parent="1" vertex="1">
          <mxGeometry x="1010" y="-244" width="103.49" height="33" as="geometry" />
        </mxCell>
        <UserObject label="&lt;div style=&quot;font-size: 1px&quot;&gt;&lt;font style=&quot;font-size: 11.29px; direction: ltr; letter-spacing: 0px; line-height: 120%; opacity: 1;&quot;&gt;GPIO_INVALID_INTERNAL_ATTACH&lt;/font&gt;&lt;/div&gt;" Function="EN_DIO_Error_T DIO_init(uint8_t pinNumber, EN_DIO_PORT_T portNumber, EN_DIO_DIRECTION_T direction);" tags="Flowchart" id="Z0ikh39LYSVqTTAxaPjd-73">
          <mxCell style="verticalAlign=middle;align=center;overflow=width;vsdxID=52;fillColor=#f8cecc;shape=stencil(tVLREoIgEPwaHnEQxsl3s/9gEpSJwDko7e+DsEkze2l627vdu5uFRaxyHe8FosR5sCcxqMZ3iO0Rpcp0ApQPCLEasUpaEC3Yi2lS3fOojOhsr3HDmObyMtsVcYqS29Qh5FEfklwrM5OXeUa/yjkcAwfr7TDpiyTfXvjkMR+Vw2A998qaBac5tAKHU1hq3i4oNwjRr9ofvayt/+Rk+yX/4iWA159KpXWKxJx/z0Bopfyw+g4=);strokeColor=#b85450;spacingTop=-1;spacingBottom=-1;spacingLeft=-1;spacingRight=-1;points=[[0.5,1,0],[0.5,0,0],[0,0.5,0],[1,0.5,0]];labelBackgroundColor=none;rounded=1;html=1;whiteSpace=wrap;fontFamily=Calibri;" parent="1" vertex="1">
            <mxGeometry x="1150" y="-244" width="180" height="30" as="geometry" />
          </mxCell>
        </UserObject>
        <mxCell id="Z0ikh39LYSVqTTAxaPjd-104" style="edgeStyle=orthogonalEdgeStyle;rounded=0;orthogonalLoop=1;jettySize=auto;html=1;exitX=0.5;exitY=1;exitDx=0;exitDy=0;entryX=0.5;entryY=0;entryDx=0;entryDy=0;entryPerimeter=0;" parent="1" source="Z0ikh39LYSVqTTAxaPjd-80" target="Z0ikh39LYSVqTTAxaPjd-103" edge="1">
          <mxGeometry relative="1" as="geometry" />
        </mxCell>
        <mxCell id="Z0ikh39LYSVqTTAxaPjd-80" value="Enable GPIO Digital" style="rounded=0;whiteSpace=wrap;html=1;fontSize=11.26;fillColor=#d5e8d4;strokeColor=#82b366;fontFamily=Calibri;" parent="1" vertex="1">
          <mxGeometry x="541" y="-143" width="101.49" height="33" as="geometry" />
        </mxCell>
        <mxCell id="Z0ikh39LYSVqTTAxaPjd-91" style="edgeStyle=orthogonalEdgeStyle;rounded=0;orthogonalLoop=1;jettySize=auto;html=1;entryX=0.5;entryY=0;entryDx=0;entryDy=0;" parent="1" source="Z0ikh39LYSVqTTAxaPjd-92" target="Z0ikh39LYSVqTTAxaPjd-93" edge="1">
          <mxGeometry relative="1" as="geometry" />
        </mxCell>
        <UserObject label="&lt;div style=&quot;font-size: 1px&quot;&gt;&lt;font style=&quot;font-size: 11.29px; direction: ltr; letter-spacing: 0px; line-height: 120%; opacity: 1;&quot;&gt;START&lt;/font&gt;&lt;/div&gt;" Function="EN_DIO_Error_T DIO_init(uint8_t pinNumber, EN_DIO_PORT_T portNumber, EN_DIO_DIRECTION_T direction);" tags="Flowchart" id="Z0ikh39LYSVqTTAxaPjd-92">
          <mxCell style="verticalAlign=middle;align=center;overflow=width;vsdxID=30;fillColor=#dae8fc;shape=stencil(tVLREoIgEPwaHnEQxsl3s/9gEpSJwDko7e+DsEkze2l627vdu5uFRaxyHe8FosR5sCcxqMZ3iO0Rpcp0ApQPCLEasUpaEC3Yi2lS3fOojOhsr3HDmObyMtsVcYqS29Qh5FEfklwrM5OXeUa/yjkcAwfr7TDpiyTfXvjkMR+Vw2A998qaBac5tAKHU1hq3i4oNwjRr9ofvayt/+Rk+yX/4iWA159KpXWKxJx/z0Bopfyw+g4=);strokeColor=#6c8ebf;spacingTop=-1;spacingBottom=-1;spacingLeft=-1;spacingRight=-1;points=[[0.5,1,0],[0.5,0,0],[0,0.5,0],[1,0.5,0]];labelBackgroundColor=none;rounded=1;html=1;whiteSpace=wrap;fontFamily=Calibri;" parent="1" vertex="1">
            <mxGeometry x="323.48" y="40" width="101" height="38" as="geometry" />
          </mxCell>
        </UserObject>
        <mxCell id="Z0ikh39LYSVqTTAxaPjd-98" style="edgeStyle=orthogonalEdgeStyle;rounded=0;orthogonalLoop=1;jettySize=auto;html=1;exitX=0.5;exitY=1;exitDx=0;exitDy=0;entryX=0.5;entryY=0;entryDx=0;entryDy=0;entryPerimeter=0;" parent="1" source="Z0ikh39LYSVqTTAxaPjd-93" target="Z0ikh39LYSVqTTAxaPjd-95" edge="1">
          <mxGeometry relative="1" as="geometry" />
        </mxCell>
        <mxCell id="Z0ikh39LYSVqTTAxaPjd-93" value="&lt;font face=&quot;Calibri&quot; style=&quot;font-size: 11.26px;&quot;&gt;PIN INDEX CHECK&lt;/font&gt;" style="shape=process;whiteSpace=wrap;html=1;backgroundOutline=1;fontSize=16;fillColor=#ffe6cc;strokeColor=#d79b00;" parent="1" vertex="1">
          <mxGeometry x="315.98" y="98" width="116" height="46" as="geometry" />
        </mxCell>
        <mxCell id="Z0ikh39LYSVqTTAxaPjd-97" value="false" style="edgeStyle=orthogonalEdgeStyle;rounded=0;orthogonalLoop=1;jettySize=auto;html=1;exitX=1;exitY=0.5;exitDx=0;exitDy=0;exitPerimeter=0;entryX=0;entryY=0.5;entryDx=0;entryDy=0;entryPerimeter=0;fontFamily=Calibri;" parent="1" source="Z0ikh39LYSVqTTAxaPjd-95" target="Z0ikh39LYSVqTTAxaPjd-96" edge="1">
          <mxGeometry relative="1" as="geometry" />
        </mxCell>
        <mxCell id="Z0ikh39LYSVqTTAxaPjd-100" value="true" style="edgeStyle=orthogonalEdgeStyle;rounded=0;orthogonalLoop=1;jettySize=auto;html=1;exitX=0.5;exitY=1;exitDx=0;exitDy=0;exitPerimeter=0;entryX=0.5;entryY=0;entryDx=0;entryDy=0;fontFamily=Calibri;" parent="1" source="Z0ikh39LYSVqTTAxaPjd-95" target="Z0ikh39LYSVqTTAxaPjd-99" edge="1">
          <mxGeometry relative="1" as="geometry" />
        </mxCell>
        <UserObject label="if pin_level == GPIO_HIGH" Function="EN_DIO_Error_T DIO_init(uint8_t pinNumber, EN_DIO_PORT_T portNumber, EN_DIO_DIRECTION_T direction);" tags="Flowchart" id="Z0ikh39LYSVqTTAxaPjd-95">
          <mxCell style="vsdxID=219;fillColor=#fff2cc;shape=stencil(UzV2Ls5ILEhVNTIoLinKz04tz0wpyVA1dlE1MsrMy0gtyiwBslSNXVWNndPyi1LTi/JL81Ig/IJEkEoQKze/DGRCBUSfAUiHkUElhGcK4bpBVOZk5iGpNEVVikeloQHZpsK0YlWLz1QgA+HFtMycHEgIIcujBwlQCBKcxq4A);strokeColor=#d6b656;spacingTop=-1;spacingBottom=-1;spacingLeft=-1;spacingRight=-1;points=[[0,0.5,0],[1,0.5,0],[0.5,0,0],[0.5,1,0]];labelBackgroundColor=none;rounded=1;html=1;whiteSpace=wrap;fontFamily=Calibri;fontSize=11.29;" parent="1" vertex="1">
            <mxGeometry x="276.24" y="170" width="195.5" height="40" as="geometry" />
          </mxCell>
        </UserObject>
        <mxCell id="Z0ikh39LYSVqTTAxaPjd-102" value="true" style="edgeStyle=orthogonalEdgeStyle;rounded=0;orthogonalLoop=1;jettySize=auto;html=1;exitX=0.5;exitY=1;exitDx=0;exitDy=0;exitPerimeter=0;entryX=0.5;entryY=0;entryDx=0;entryDy=0;fontFamily=Calibri;" parent="1" source="Z0ikh39LYSVqTTAxaPjd-96" target="Z0ikh39LYSVqTTAxaPjd-101" edge="1">
          <mxGeometry relative="1" as="geometry" />
        </mxCell>
        <mxCell id="Z0ikh39LYSVqTTAxaPjd-110" value="false" style="edgeStyle=orthogonalEdgeStyle;rounded=0;orthogonalLoop=1;jettySize=auto;html=1;exitX=1;exitY=0.5;exitDx=0;exitDy=0;exitPerimeter=0;entryX=0.5;entryY=0;entryDx=0;entryDy=0;entryPerimeter=0;fontFamily=Calibri;" parent="1" source="Z0ikh39LYSVqTTAxaPjd-96" target="Z0ikh39LYSVqTTAxaPjd-109" edge="1">
          <mxGeometry relative="1" as="geometry" />
        </mxCell>
        <UserObject label="if pin_level == GPIO_LOW" Function="EN_DIO_Error_T DIO_init(uint8_t pinNumber, EN_DIO_PORT_T portNumber, EN_DIO_DIRECTION_T direction);" tags="Flowchart" id="Z0ikh39LYSVqTTAxaPjd-96">
          <mxCell style="vsdxID=219;fillColor=#fff2cc;shape=stencil(UzV2Ls5ILEhVNTIoLinKz04tz0wpyVA1dlE1MsrMy0gtyiwBslSNXVWNndPyi1LTi/JL81Ig/IJEkEoQKze/DGRCBUSfAUiHkUElhGcK4bpBVOZk5iGpNEVVikeloQHZpsK0YlWLz1QgA+HFtMycHEgIIcujBwlQCBKcxq4A);strokeColor=#d6b656;spacingTop=-1;spacingBottom=-1;spacingLeft=-1;spacingRight=-1;points=[[0,0.5,0],[1,0.5,0],[0.5,0,0],[0.5,1,0]];labelBackgroundColor=none;rounded=1;html=1;whiteSpace=wrap;fontFamily=Calibri;fontSize=11.29;" parent="1" vertex="1">
            <mxGeometry x="535.73" y="170" width="195.5" height="40" as="geometry" />
          </mxCell>
        </UserObject>
        <mxCell id="Z0ikh39LYSVqTTAxaPjd-106" style="edgeStyle=orthogonalEdgeStyle;rounded=0;orthogonalLoop=1;jettySize=auto;html=1;exitX=0.5;exitY=1;exitDx=0;exitDy=0;entryX=0.5;entryY=0;entryDx=0;entryDy=0;entryPerimeter=0;" parent="1" source="Z0ikh39LYSVqTTAxaPjd-99" target="Z0ikh39LYSVqTTAxaPjd-105" edge="1">
          <mxGeometry relative="1" as="geometry" />
        </mxCell>
        <mxCell id="Z0ikh39LYSVqTTAxaPjd-99" value="set HIGH on the pin" style="rounded=0;whiteSpace=wrap;html=1;fontSize=11.26;fillColor=#d5e8d4;strokeColor=#82b366;fontFamily=Calibri;" parent="1" vertex="1">
          <mxGeometry x="310.99" y="240" width="125.99" height="20" as="geometry" />
        </mxCell>
        <mxCell id="Z0ikh39LYSVqTTAxaPjd-108" style="edgeStyle=orthogonalEdgeStyle;rounded=0;orthogonalLoop=1;jettySize=auto;html=1;exitX=0.5;exitY=1;exitDx=0;exitDy=0;entryX=0.5;entryY=0;entryDx=0;entryDy=0;entryPerimeter=0;" parent="1" source="Z0ikh39LYSVqTTAxaPjd-101" target="Z0ikh39LYSVqTTAxaPjd-105" edge="1">
          <mxGeometry relative="1" as="geometry" />
        </mxCell>
        <mxCell id="Z0ikh39LYSVqTTAxaPjd-101" value="set LOW on the pin" style="rounded=0;whiteSpace=wrap;html=1;fontSize=11.26;fillColor=#d5e8d4;strokeColor=#82b366;fontFamily=Calibri;" parent="1" vertex="1">
          <mxGeometry x="570.48" y="240" width="125.99" height="20" as="geometry" />
        </mxCell>
        <UserObject label="&lt;div style=&quot;font-size: 1px&quot;&gt;&lt;font style=&quot;font-size: 11.29px; direction: ltr; letter-spacing: 0px; line-height: 120%; opacity: 1;&quot;&gt;ERROR_OK&lt;/font&gt;&lt;/div&gt;" Function="EN_DIO_Error_T DIO_init(uint8_t pinNumber, EN_DIO_PORT_T portNumber, EN_DIO_DIRECTION_T direction);" tags="Flowchart" id="Z0ikh39LYSVqTTAxaPjd-103">
          <mxCell style="verticalAlign=middle;align=center;overflow=width;vsdxID=52;fillColor=#d5e8d4;shape=stencil(tVLREoIgEPwaHnEQxsl3s/9gEpSJwDko7e+DsEkze2l627vdu5uFRaxyHe8FosR5sCcxqMZ3iO0Rpcp0ApQPCLEasUpaEC3Yi2lS3fOojOhsr3HDmObyMtsVcYqS29Qh5FEfklwrM5OXeUa/yjkcAwfr7TDpiyTfXvjkMR+Vw2A998qaBac5tAKHU1hq3i4oNwjRr9ofvayt/+Rk+yX/4iWA159KpXWKxJx/z0Bopfyw+g4=);strokeColor=#82b366;spacingTop=-1;spacingBottom=-1;spacingLeft=-1;spacingRight=-1;points=[[0.5,1,0],[0.5,0,0],[0,0.5,0],[1,0.5,0]];labelBackgroundColor=none;rounded=1;html=1;whiteSpace=wrap;fontFamily=Calibri;" parent="1" vertex="1">
            <mxGeometry x="542.25" y="-90" width="99" height="38" as="geometry" />
          </mxCell>
        </UserObject>
        <UserObject label="&lt;div style=&quot;font-size: 1px&quot;&gt;&lt;font style=&quot;font-size: 11.29px; direction: ltr; letter-spacing: 0px; line-height: 120%; opacity: 1;&quot;&gt;ERROR_OK&lt;/font&gt;&lt;/div&gt;" Function="EN_DIO_Error_T DIO_init(uint8_t pinNumber, EN_DIO_PORT_T portNumber, EN_DIO_DIRECTION_T direction);" tags="Flowchart" id="Z0ikh39LYSVqTTAxaPjd-105">
          <mxCell style="verticalAlign=middle;align=center;overflow=width;vsdxID=52;fillColor=#d5e8d4;shape=stencil(tVLREoIgEPwaHnEQxsl3s/9gEpSJwDko7e+DsEkze2l627vdu5uFRaxyHe8FosR5sCcxqMZ3iO0Rpcp0ApQPCLEasUpaEC3Yi2lS3fOojOhsr3HDmObyMtsVcYqS29Qh5FEfklwrM5OXeUa/yjkcAwfr7TDpiyTfXvjkMR+Vw2A998qaBac5tAKHU1hq3i4oNwjRr9ofvayt/+Rk+yX/4iWA159KpXWKxJx/z0Bopfyw+g4=);strokeColor=#82b366;spacingTop=-1;spacingBottom=-1;spacingLeft=-1;spacingRight=-1;points=[[0.5,1,0],[0.5,0,0],[0,0.5,0],[1,0.5,0]];labelBackgroundColor=none;rounded=1;html=1;whiteSpace=wrap;fontFamily=Calibri;" parent="1" vertex="1">
            <mxGeometry x="453.48" y="330" width="101" height="38" as="geometry" />
          </mxCell>
        </UserObject>
        <UserObject label="GPIO_INVALID_PIN_LEVEL" Function="EN_DIO_Error_T DIO_init(uint8_t pinNumber, EN_DIO_PORT_T portNumber, EN_DIO_DIRECTION_T direction);" tags="Flowchart" id="Z0ikh39LYSVqTTAxaPjd-109">
          <mxCell style="verticalAlign=middle;align=center;overflow=width;vsdxID=52;fillColor=#f8cecc;shape=stencil(tVLREoIgEPwaHnEQxsl3s/9gEpSJwDko7e+DsEkze2l627vdu5uFRaxyHe8FosR5sCcxqMZ3iO0Rpcp0ApQPCLEasUpaEC3Yi2lS3fOojOhsr3HDmObyMtsVcYqS29Qh5FEfklwrM5OXeUa/yjkcAwfr7TDpiyTfXvjkMR+Vw2A998qaBac5tAKHU1hq3i4oNwjRr9ofvayt/+Rk+yX/4iWA159KpXWKxJx/z0Bopfyw+g4=);strokeColor=#b85450;spacingTop=-1;spacingBottom=-1;spacingLeft=-1;spacingRight=-1;points=[[0.5,1,0],[0.5,0,0],[0,0.5,0],[1,0.5,0]];labelBackgroundColor=none;rounded=1;html=1;whiteSpace=wrap;fontFamily=Calibri;" parent="1" vertex="1">
            <mxGeometry x="703.48" y="330" width="151.02" height="38" as="geometry" />
          </mxCell>
        </UserObject>
        <mxCell id="Z0ikh39LYSVqTTAxaPjd-127" style="edgeStyle=orthogonalEdgeStyle;rounded=0;orthogonalLoop=1;jettySize=auto;html=1;entryX=0.5;entryY=0;entryDx=0;entryDy=0;" parent="1" source="Z0ikh39LYSVqTTAxaPjd-128" target="Z0ikh39LYSVqTTAxaPjd-130" edge="1">
          <mxGeometry relative="1" as="geometry" />
        </mxCell>
        <UserObject label="&lt;div style=&quot;font-size: 1px&quot;&gt;&lt;font style=&quot;font-size: 11.29px; direction: ltr; letter-spacing: 0px; line-height: 120%; opacity: 1;&quot;&gt;START&lt;/font&gt;&lt;/div&gt;" Function="EN_DIO_Error_T DIO_init(uint8_t pinNumber, EN_DIO_PORT_T portNumber, EN_DIO_DIRECTION_T direction);" tags="Flowchart" id="Z0ikh39LYSVqTTAxaPjd-128">
          <mxCell style="verticalAlign=middle;align=center;overflow=width;vsdxID=30;fillColor=#dae8fc;shape=stencil(tVLREoIgEPwaHnEQxsl3s/9gEpSJwDko7e+DsEkze2l627vdu5uFRaxyHe8FosR5sCcxqMZ3iO0Rpcp0ApQPCLEasUpaEC3Yi2lS3fOojOhsr3HDmObyMtsVcYqS29Qh5FEfklwrM5OXeUa/yjkcAwfr7TDpiyTfXvjkMR+Vw2A998qaBac5tAKHU1hq3i4oNwjRr9ofvayt/+Rk+yX/4iWA159KpXWKxJx/z0Bopfyw+g4=);strokeColor=#6c8ebf;spacingTop=-1;spacingBottom=-1;spacingLeft=-1;spacingRight=-1;points=[[0.5,1,0],[0.5,0,0],[0,0.5,0],[1,0.5,0]];labelBackgroundColor=none;rounded=1;html=1;whiteSpace=wrap;fontFamily=Calibri;" parent="1" vertex="1">
            <mxGeometry x="967.24" y="40" width="101" height="38" as="geometry" />
          </mxCell>
        </UserObject>
        <mxCell id="Z0ikh39LYSVqTTAxaPjd-129" style="edgeStyle=orthogonalEdgeStyle;rounded=0;orthogonalLoop=1;jettySize=auto;html=1;exitX=0.5;exitY=1;exitDx=0;exitDy=0;entryX=0.5;entryY=0;entryDx=0;entryDy=0;entryPerimeter=0;" parent="1" source="Z0ikh39LYSVqTTAxaPjd-130" target="Z0ikh39LYSVqTTAxaPjd-133" edge="1">
          <mxGeometry relative="1" as="geometry" />
        </mxCell>
        <mxCell id="Z0ikh39LYSVqTTAxaPjd-130" value="&lt;font face=&quot;Calibri&quot; style=&quot;font-size: 11.26px;&quot;&gt;PIN INDEX CHECK&lt;/font&gt;" style="shape=process;whiteSpace=wrap;html=1;backgroundOutline=1;fontSize=16;fillColor=#ffe6cc;strokeColor=#d79b00;" parent="1" vertex="1">
          <mxGeometry x="959.74" y="98" width="116" height="46" as="geometry" />
        </mxCell>
        <mxCell id="Z0ikh39LYSVqTTAxaPjd-131" value="false" style="edgeStyle=orthogonalEdgeStyle;rounded=0;orthogonalLoop=1;jettySize=auto;html=1;exitX=1;exitY=0.5;exitDx=0;exitDy=0;exitPerimeter=0;entryX=0;entryY=0.5;entryDx=0;entryDy=0;entryPerimeter=0;fontFamily=Calibri;" parent="1" source="Z0ikh39LYSVqTTAxaPjd-133" target="Z0ikh39LYSVqTTAxaPjd-136" edge="1">
          <mxGeometry relative="1" as="geometry" />
        </mxCell>
        <mxCell id="Z0ikh39LYSVqTTAxaPjd-132" value="true" style="edgeStyle=orthogonalEdgeStyle;rounded=0;orthogonalLoop=1;jettySize=auto;html=1;exitX=0.5;exitY=1;exitDx=0;exitDy=0;exitPerimeter=0;entryX=0.5;entryY=0;entryDx=0;entryDy=0;fontFamily=Calibri;" parent="1" source="Z0ikh39LYSVqTTAxaPjd-133" target="Z0ikh39LYSVqTTAxaPjd-138" edge="1">
          <mxGeometry relative="1" as="geometry" />
        </mxCell>
        <UserObject label="if get pin_level == GPIO_HIGH" Function="EN_DIO_Error_T DIO_init(uint8_t pinNumber, EN_DIO_PORT_T portNumber, EN_DIO_DIRECTION_T direction);" tags="Flowchart" id="Z0ikh39LYSVqTTAxaPjd-133">
          <mxCell style="vsdxID=219;fillColor=#fff2cc;shape=stencil(UzV2Ls5ILEhVNTIoLinKz04tz0wpyVA1dlE1MsrMy0gtyiwBslSNXVWNndPyi1LTi/JL81Ig/IJEkEoQKze/DGRCBUSfAUiHkUElhGcK4bpBVOZk5iGpNEVVikeloQHZpsK0YlWLz1QgA+HFtMycHEgIIcujBwlQCBKcxq4A);strokeColor=#d6b656;spacingTop=-1;spacingBottom=-1;spacingLeft=-1;spacingRight=-1;points=[[0,0.5,0],[1,0.5,0],[0.5,0,0],[0.5,1,0]];labelBackgroundColor=none;rounded=1;html=1;whiteSpace=wrap;fontFamily=Calibri;fontSize=11.29;" parent="1" vertex="1">
            <mxGeometry x="920" y="170" width="195.5" height="40" as="geometry" />
          </mxCell>
        </UserObject>
        <mxCell id="Z0ikh39LYSVqTTAxaPjd-134" value="true" style="edgeStyle=orthogonalEdgeStyle;rounded=0;orthogonalLoop=1;jettySize=auto;html=1;exitX=0.5;exitY=1;exitDx=0;exitDy=0;exitPerimeter=0;entryX=0.5;entryY=0;entryDx=0;entryDy=0;fontFamily=Calibri;" parent="1" source="Z0ikh39LYSVqTTAxaPjd-136" target="Z0ikh39LYSVqTTAxaPjd-140" edge="1">
          <mxGeometry relative="1" as="geometry" />
        </mxCell>
        <UserObject label="if pin_level == GPIO_LOW" Function="EN_DIO_Error_T DIO_init(uint8_t pinNumber, EN_DIO_PORT_T portNumber, EN_DIO_DIRECTION_T direction);" tags="Flowchart" id="Z0ikh39LYSVqTTAxaPjd-136">
          <mxCell style="vsdxID=219;fillColor=#fff2cc;shape=stencil(UzV2Ls5ILEhVNTIoLinKz04tz0wpyVA1dlE1MsrMy0gtyiwBslSNXVWNndPyi1LTi/JL81Ig/IJEkEoQKze/DGRCBUSfAUiHkUElhGcK4bpBVOZk5iGpNEVVikeloQHZpsK0YlWLz1QgA+HFtMycHEgIIcujBwlQCBKcxq4A);strokeColor=#d6b656;spacingTop=-1;spacingBottom=-1;spacingLeft=-1;spacingRight=-1;points=[[0,0.5,0],[1,0.5,0],[0.5,0,0],[0.5,1,0]];labelBackgroundColor=none;rounded=1;html=1;whiteSpace=wrap;fontFamily=Calibri;fontSize=11.29;" parent="1" vertex="1">
            <mxGeometry x="1179.49" y="170" width="195.5" height="40" as="geometry" />
          </mxCell>
        </UserObject>
        <mxCell id="Z0ikh39LYSVqTTAxaPjd-137" style="edgeStyle=orthogonalEdgeStyle;rounded=0;orthogonalLoop=1;jettySize=auto;html=1;exitX=0.5;exitY=1;exitDx=0;exitDy=0;entryX=0.5;entryY=0;entryDx=0;entryDy=0;entryPerimeter=0;" parent="1" source="Z0ikh39LYSVqTTAxaPjd-138" target="Z0ikh39LYSVqTTAxaPjd-141" edge="1">
          <mxGeometry relative="1" as="geometry" />
        </mxCell>
        <mxCell id="Z0ikh39LYSVqTTAxaPjd-138" value="set LOW on the pin" style="rounded=0;whiteSpace=wrap;html=1;fontSize=11.26;fillColor=#d5e8d4;strokeColor=#82b366;fontFamily=Calibri;" parent="1" vertex="1">
          <mxGeometry x="954.75" y="240" width="125.99" height="20" as="geometry" />
        </mxCell>
        <mxCell id="Z0ikh39LYSVqTTAxaPjd-139" style="edgeStyle=orthogonalEdgeStyle;rounded=0;orthogonalLoop=1;jettySize=auto;html=1;exitX=0.5;exitY=1;exitDx=0;exitDy=0;entryX=0.5;entryY=0;entryDx=0;entryDy=0;entryPerimeter=0;" parent="1" source="Z0ikh39LYSVqTTAxaPjd-140" target="Z0ikh39LYSVqTTAxaPjd-141" edge="1">
          <mxGeometry relative="1" as="geometry" />
        </mxCell>
        <mxCell id="Z0ikh39LYSVqTTAxaPjd-140" value="set HIGH on the pin" style="rounded=0;whiteSpace=wrap;html=1;fontSize=11.26;fillColor=#d5e8d4;strokeColor=#82b366;fontFamily=Calibri;" parent="1" vertex="1">
          <mxGeometry x="1214.24" y="240" width="125.99" height="20" as="geometry" />
        </mxCell>
        <UserObject label="&lt;div style=&quot;font-size: 1px&quot;&gt;&lt;font style=&quot;font-size: 11.29px; direction: ltr; letter-spacing: 0px; line-height: 120%; opacity: 1;&quot;&gt;ERROR_OK&lt;/font&gt;&lt;/div&gt;" Function="EN_DIO_Error_T DIO_init(uint8_t pinNumber, EN_DIO_PORT_T portNumber, EN_DIO_DIRECTION_T direction);" tags="Flowchart" id="Z0ikh39LYSVqTTAxaPjd-141">
          <mxCell style="verticalAlign=middle;align=center;overflow=width;vsdxID=52;fillColor=#d5e8d4;shape=stencil(tVLREoIgEPwaHnEQxsl3s/9gEpSJwDko7e+DsEkze2l627vdu5uFRaxyHe8FosR5sCcxqMZ3iO0Rpcp0ApQPCLEasUpaEC3Yi2lS3fOojOhsr3HDmObyMtsVcYqS29Qh5FEfklwrM5OXeUa/yjkcAwfr7TDpiyTfXvjkMR+Vw2A998qaBac5tAKHU1hq3i4oNwjRr9ofvayt/+Rk+yX/4iWA159KpXWKxJx/z0Bopfyw+g4=);strokeColor=#82b366;spacingTop=-1;spacingBottom=-1;spacingLeft=-1;spacingRight=-1;points=[[0.5,1,0],[0.5,0,0],[0,0.5,0],[1,0.5,0]];labelBackgroundColor=none;rounded=1;html=1;whiteSpace=wrap;fontFamily=Calibri;" parent="1" vertex="1">
            <mxGeometry x="1097.24" y="330" width="101" height="38" as="geometry" />
          </mxCell>
        </UserObject>
        <mxCell id="Z0ikh39LYSVqTTAxaPjd-143" style="edgeStyle=orthogonalEdgeStyle;rounded=0;orthogonalLoop=1;jettySize=auto;html=1;entryX=0.5;entryY=0;entryDx=0;entryDy=0;" parent="1" source="Z0ikh39LYSVqTTAxaPjd-144" target="Z0ikh39LYSVqTTAxaPjd-145" edge="1">
          <mxGeometry relative="1" as="geometry" />
        </mxCell>
        <UserObject label="&lt;div style=&quot;font-size: 1px&quot;&gt;&lt;font style=&quot;font-size: 11.29px; direction: ltr; letter-spacing: 0px; line-height: 120%; opacity: 1;&quot;&gt;START&lt;/font&gt;&lt;/div&gt;" Function="EN_DIO_Error_T DIO_init(uint8_t pinNumber, EN_DIO_PORT_T portNumber, EN_DIO_DIRECTION_T direction);" tags="Flowchart" id="Z0ikh39LYSVqTTAxaPjd-144">
          <mxCell style="verticalAlign=middle;align=center;overflow=width;vsdxID=30;fillColor=#dae8fc;shape=stencil(tVLREoIgEPwaHnEQxsl3s/9gEpSJwDko7e+DsEkze2l627vdu5uFRaxyHe8FosR5sCcxqMZ3iO0Rpcp0ApQPCLEasUpaEC3Yi2lS3fOojOhsr3HDmObyMtsVcYqS29Qh5FEfklwrM5OXeUa/yjkcAwfr7TDpiyTfXvjkMR+Vw2A998qaBac5tAKHU1hq3i4oNwjRr9ofvayt/+Rk+yX/4iWA159KpXWKxJx/z0Bopfyw+g4=);strokeColor=#6c8ebf;spacingTop=-1;spacingBottom=-1;spacingLeft=-1;spacingRight=-1;points=[[0.5,1,0],[0.5,0,0],[0,0.5,0],[1,0.5,0]];labelBackgroundColor=none;rounded=1;html=1;whiteSpace=wrap;fontFamily=Calibri;" parent="1" vertex="1">
            <mxGeometry x="1427.5" y="-800" width="101" height="38" as="geometry" />
          </mxCell>
        </UserObject>
        <mxCell id="Z0ikh39LYSVqTTAxaPjd-147" style="edgeStyle=orthogonalEdgeStyle;rounded=0;orthogonalLoop=1;jettySize=auto;html=1;exitX=0.5;exitY=1;exitDx=0;exitDy=0;entryX=0.5;entryY=0;entryDx=0;entryDy=0;" parent="1" source="Z0ikh39LYSVqTTAxaPjd-145" target="Z0ikh39LYSVqTTAxaPjd-146" edge="1">
          <mxGeometry relative="1" as="geometry" />
        </mxCell>
        <mxCell id="Z0ikh39LYSVqTTAxaPjd-145" value="&lt;font face=&quot;Calibri&quot; style=&quot;font-size: 11.26px;&quot;&gt;PIN INDEX CHECK&lt;/font&gt;" style="shape=process;whiteSpace=wrap;html=1;backgroundOutline=1;fontSize=16;fillColor=#ffe6cc;strokeColor=#d79b00;" parent="1" vertex="1">
          <mxGeometry x="1420" y="-742" width="116" height="46" as="geometry" />
        </mxCell>
        <mxCell id="Z0ikh39LYSVqTTAxaPjd-151" style="edgeStyle=orthogonalEdgeStyle;rounded=0;orthogonalLoop=1;jettySize=auto;html=1;exitX=0.5;exitY=1;exitDx=0;exitDy=0;entryX=0.5;entryY=0;entryDx=0;entryDy=0;entryPerimeter=0;" parent="1" source="Z0ikh39LYSVqTTAxaPjd-146" target="Z0ikh39LYSVqTTAxaPjd-150" edge="1">
          <mxGeometry relative="1" as="geometry" />
        </mxCell>
        <mxCell id="Z0ikh39LYSVqTTAxaPjd-146" value="*pin_state = get pin level" style="rounded=0;whiteSpace=wrap;html=1;fontSize=11.26;fillColor=#d5e8d4;strokeColor=#82b366;fontFamily=Calibri;" parent="1" vertex="1">
          <mxGeometry x="1415.01" y="-670" width="125.99" height="22.5" as="geometry" />
        </mxCell>
        <UserObject label="&lt;div style=&quot;font-size: 1px&quot;&gt;&lt;font style=&quot;font-size: 11.29px; direction: ltr; letter-spacing: 0px; line-height: 120%; opacity: 1;&quot;&gt;ERROR_OK&lt;/font&gt;&lt;/div&gt;" Function="EN_DIO_Error_T DIO_init(uint8_t pinNumber, EN_DIO_PORT_T portNumber, EN_DIO_DIRECTION_T direction);" tags="Flowchart" id="Z0ikh39LYSVqTTAxaPjd-150">
          <mxCell style="verticalAlign=middle;align=center;overflow=width;vsdxID=52;fillColor=#d5e8d4;shape=stencil(tVLREoIgEPwaHnEQxsl3s/9gEpSJwDko7e+DsEkze2l627vdu5uFRaxyHe8FosR5sCcxqMZ3iO0Rpcp0ApQPCLEasUpaEC3Yi2lS3fOojOhsr3HDmObyMtsVcYqS29Qh5FEfklwrM5OXeUa/yjkcAwfr7TDpiyTfXvjkMR+Vw2A998qaBac5tAKHU1hq3i4oNwjRr9ofvayt/+Rk+yX/4iWA159KpXWKxJx/z0Bopfyw+g4=);strokeColor=#82b366;spacingTop=-1;spacingBottom=-1;spacingLeft=-1;spacingRight=-1;points=[[0.5,1,0],[0.5,0,0],[0,0.5,0],[1,0.5,0]];labelBackgroundColor=none;rounded=1;html=1;whiteSpace=wrap;fontFamily=Calibri;" parent="1" vertex="1">
            <mxGeometry x="1427.5" y="-611" width="101" height="38" as="geometry" />
          </mxCell>
        </UserObject>
        <mxCell id="Z0ikh39LYSVqTTAxaPjd-152" style="edgeStyle=orthogonalEdgeStyle;rounded=0;orthogonalLoop=1;jettySize=auto;html=1;entryX=0.5;entryY=0;entryDx=0;entryDy=0;" parent="1" source="Z0ikh39LYSVqTTAxaPjd-153" target="Z0ikh39LYSVqTTAxaPjd-154" edge="1">
          <mxGeometry relative="1" as="geometry" />
        </mxCell>
        <UserObject label="&lt;div style=&quot;font-size: 1px&quot;&gt;&lt;font style=&quot;font-size: 11.29px; direction: ltr; letter-spacing: 0px; line-height: 120%; opacity: 1;&quot;&gt;START&lt;/font&gt;&lt;/div&gt;" Function="EN_DIO_Error_T DIO_init(uint8_t pinNumber, EN_DIO_PORT_T portNumber, EN_DIO_DIRECTION_T direction);" tags="Flowchart" id="Z0ikh39LYSVqTTAxaPjd-153">
          <mxCell style="verticalAlign=middle;align=center;overflow=width;vsdxID=30;fillColor=#dae8fc;shape=stencil(tVLREoIgEPwaHnEQxsl3s/9gEpSJwDko7e+DsEkze2l627vdu5uFRaxyHe8FosR5sCcxqMZ3iO0Rpcp0ApQPCLEasUpaEC3Yi2lS3fOojOhsr3HDmObyMtsVcYqS29Qh5FEfklwrM5OXeUa/yjkcAwfr7TDpiyTfXvjkMR+Vw2A998qaBac5tAKHU1hq3i4oNwjRr9ofvayt/+Rk+yX/4iWA159KpXWKxJx/z0Bopfyw+g4=);strokeColor=#6c8ebf;spacingTop=-1;spacingBottom=-1;spacingLeft=-1;spacingRight=-1;points=[[0.5,1,0],[0.5,0,0],[0,0.5,0],[1,0.5,0]];labelBackgroundColor=none;rounded=1;html=1;whiteSpace=wrap;fontFamily=Calibri;" parent="1" vertex="1">
            <mxGeometry x="1727.5" y="-800" width="101" height="38" as="geometry" />
          </mxCell>
        </UserObject>
        <mxCell id="Z0ikh39LYSVqTTAxaPjd-162" style="edgeStyle=orthogonalEdgeStyle;rounded=0;orthogonalLoop=1;jettySize=auto;html=1;exitX=0.5;exitY=1;exitDx=0;exitDy=0;entryX=0.5;entryY=0;entryDx=0;entryDy=0;" parent="1" source="Z0ikh39LYSVqTTAxaPjd-154" target="Z0ikh39LYSVqTTAxaPjd-155" edge="1">
          <mxGeometry relative="1" as="geometry" />
        </mxCell>
        <mxCell id="Z0ikh39LYSVqTTAxaPjd-154" value="&lt;font face=&quot;Calibri&quot; style=&quot;font-size: 11.26px;&quot;&gt;PIN INDEX CHECK&lt;/font&gt;" style="shape=process;whiteSpace=wrap;html=1;backgroundOutline=1;fontSize=16;fillColor=#ffe6cc;strokeColor=#d79b00;" parent="1" vertex="1">
          <mxGeometry x="1720" y="-742" width="116" height="46" as="geometry" />
        </mxCell>
        <mxCell id="Z0ikh39LYSVqTTAxaPjd-161" style="edgeStyle=orthogonalEdgeStyle;rounded=0;orthogonalLoop=1;jettySize=auto;html=1;exitX=0.5;exitY=1;exitDx=0;exitDy=0;entryX=0.5;entryY=0;entryDx=0;entryDy=0;" parent="1" source="Z0ikh39LYSVqTTAxaPjd-155" target="Z0ikh39LYSVqTTAxaPjd-156" edge="1">
          <mxGeometry relative="1" as="geometry" />
        </mxCell>
        <mxCell id="Z0ikh39LYSVqTTAxaPjd-155" value="mask pin&#39;s interrupt" style="rounded=0;whiteSpace=wrap;html=1;fontSize=11.26;fillColor=#d5e8d4;strokeColor=#82b366;fontFamily=Calibri;" parent="1" vertex="1">
          <mxGeometry x="1715" y="-676.62" width="125.99" height="22.5" as="geometry" />
        </mxCell>
        <mxCell id="Z0ikh39LYSVqTTAxaPjd-160" style="edgeStyle=orthogonalEdgeStyle;rounded=0;orthogonalLoop=1;jettySize=auto;html=1;exitX=0.5;exitY=1;exitDx=0;exitDy=0;entryX=0.5;entryY=0;entryDx=0;entryDy=0;" parent="1" source="Z0ikh39LYSVqTTAxaPjd-156" target="Z0ikh39LYSVqTTAxaPjd-157" edge="1">
          <mxGeometry relative="1" as="geometry" />
        </mxCell>
        <mxCell id="Z0ikh39LYSVqTTAxaPjd-156" value="configure pin&#39;s interrupt signal and event" style="rounded=0;whiteSpace=wrap;html=1;fontSize=11.26;fillColor=#d5e8d4;strokeColor=#82b366;fontFamily=Calibri;" parent="1" vertex="1">
          <mxGeometry x="1675" y="-638.87" width="205.99" height="22.5" as="geometry" />
        </mxCell>
        <mxCell id="Z0ikh39LYSVqTTAxaPjd-159" style="edgeStyle=orthogonalEdgeStyle;rounded=0;orthogonalLoop=1;jettySize=auto;html=1;exitX=0.5;exitY=1;exitDx=0;exitDy=0;entryX=0.5;entryY=0;entryDx=0;entryDy=0;" parent="1" source="Z0ikh39LYSVqTTAxaPjd-157" target="Z0ikh39LYSVqTTAxaPjd-158" edge="1">
          <mxGeometry relative="1" as="geometry" />
        </mxCell>
        <mxCell id="Z0ikh39LYSVqTTAxaPjd-157" value="Clear pin&#39;s interrupt" style="rounded=0;whiteSpace=wrap;html=1;fontSize=11.26;fillColor=#d5e8d4;strokeColor=#82b366;fontFamily=Calibri;" parent="1" vertex="1">
          <mxGeometry x="1715" y="-598.87" width="125.99" height="22.5" as="geometry" />
        </mxCell>
        <mxCell id="Z0ikh39LYSVqTTAxaPjd-164" style="edgeStyle=orthogonalEdgeStyle;rounded=0;orthogonalLoop=1;jettySize=auto;html=1;exitX=0.5;exitY=1;exitDx=0;exitDy=0;entryX=0.5;entryY=0;entryDx=0;entryDy=0;" parent="1" source="Z0ikh39LYSVqTTAxaPjd-158" target="Z0ikh39LYSVqTTAxaPjd-163" edge="1">
          <mxGeometry relative="1" as="geometry" />
        </mxCell>
        <mxCell id="Z0ikh39LYSVqTTAxaPjd-158" value="Unmask pin&#39;s interrupt" style="rounded=0;whiteSpace=wrap;html=1;fontSize=11.26;fillColor=#d5e8d4;strokeColor=#82b366;fontFamily=Calibri;" parent="1" vertex="1">
          <mxGeometry x="1715" y="-558.87" width="125.99" height="22.5" as="geometry" />
        </mxCell>
        <mxCell id="Z0ikh39LYSVqTTAxaPjd-167" style="edgeStyle=orthogonalEdgeStyle;rounded=0;orthogonalLoop=1;jettySize=auto;html=1;exitX=0.5;exitY=1;exitDx=0;exitDy=0;entryX=0.5;entryY=0;entryDx=0;entryDy=0;" parent="1" source="Z0ikh39LYSVqTTAxaPjd-163" target="Z0ikh39LYSVqTTAxaPjd-166" edge="1">
          <mxGeometry relative="1" as="geometry" />
        </mxCell>
        <mxCell id="Z0ikh39LYSVqTTAxaPjd-163" value="enable NVIC&#39;s interrupt request for the port" style="rounded=0;whiteSpace=wrap;html=1;fontSize=11.26;fillColor=#d5e8d4;strokeColor=#82b366;fontFamily=Calibri;" parent="1" vertex="1">
          <mxGeometry x="1669.99" y="-519.75" width="216.01" height="22.5" as="geometry" />
        </mxCell>
        <mxCell id="Z0ikh39LYSVqTTAxaPjd-169" style="edgeStyle=orthogonalEdgeStyle;rounded=0;orthogonalLoop=1;jettySize=auto;html=1;exitX=0.5;exitY=1;exitDx=0;exitDy=0;entryX=0.5;entryY=0;entryDx=0;entryDy=0;entryPerimeter=0;" parent="1" source="Z0ikh39LYSVqTTAxaPjd-166" target="Z0ikh39LYSVqTTAxaPjd-168" edge="1">
          <mxGeometry relative="1" as="geometry" />
        </mxCell>
        <mxCell id="Z0ikh39LYSVqTTAxaPjd-166" value="Enable global&#39;s interrupt" style="rounded=0;whiteSpace=wrap;html=1;fontSize=11.26;fillColor=#d5e8d4;strokeColor=#82b366;fontFamily=Calibri;" parent="1" vertex="1">
          <mxGeometry x="1669.99" y="-479.5" width="216.01" height="22.5" as="geometry" />
        </mxCell>
        <UserObject label="&lt;div style=&quot;font-size: 1px&quot;&gt;&lt;font style=&quot;font-size: 11.29px; direction: ltr; letter-spacing: 0px; line-height: 120%; opacity: 1;&quot;&gt;ERROR_OK&lt;/font&gt;&lt;/div&gt;" Function="EN_DIO_Error_T DIO_init(uint8_t pinNumber, EN_DIO_PORT_T portNumber, EN_DIO_DIRECTION_T direction);" tags="Flowchart" id="Z0ikh39LYSVqTTAxaPjd-168">
          <mxCell style="verticalAlign=middle;align=center;overflow=width;vsdxID=52;fillColor=#d5e8d4;shape=stencil(tVLREoIgEPwaHnEQxsl3s/9gEpSJwDko7e+DsEkze2l627vdu5uFRaxyHe8FosR5sCcxqMZ3iO0Rpcp0ApQPCLEasUpaEC3Yi2lS3fOojOhsr3HDmObyMtsVcYqS29Qh5FEfklwrM5OXeUa/yjkcAwfr7TDpiyTfXvjkMR+Vw2A998qaBac5tAKHU1hq3i4oNwjRr9ofvayt/+Rk+yX/4iWA159KpXWKxJx/z0Bopfyw+g4=);strokeColor=#82b366;spacingTop=-1;spacingBottom=-1;spacingLeft=-1;spacingRight=-1;points=[[0.5,1,0],[0.5,0,0],[0,0.5,0],[1,0.5,0]];labelBackgroundColor=none;rounded=1;html=1;whiteSpace=wrap;fontFamily=Calibri;" parent="1" vertex="1">
            <mxGeometry x="1727.5" y="-432.5" width="101" height="38" as="geometry" />
          </mxCell>
        </UserObject>
        <mxCell id="Z0ikh39LYSVqTTAxaPjd-173" style="edgeStyle=orthogonalEdgeStyle;rounded=0;orthogonalLoop=1;jettySize=auto;html=1;entryX=0.5;entryY=0;entryDx=0;entryDy=0;" parent="1" source="Z0ikh39LYSVqTTAxaPjd-174" target="Z0ikh39LYSVqTTAxaPjd-175" edge="1">
          <mxGeometry relative="1" as="geometry" />
        </mxCell>
        <UserObject label="&lt;div style=&quot;font-size: 1px&quot;&gt;&lt;font style=&quot;font-size: 11.29px; direction: ltr; letter-spacing: 0px; line-height: 120%; opacity: 1;&quot;&gt;START&lt;/font&gt;&lt;/div&gt;" Function="EN_DIO_Error_T DIO_init(uint8_t pinNumber, EN_DIO_PORT_T portNumber, EN_DIO_DIRECTION_T direction);" tags="Flowchart" id="Z0ikh39LYSVqTTAxaPjd-174">
          <mxCell style="verticalAlign=middle;align=center;overflow=width;vsdxID=30;fillColor=#dae8fc;shape=stencil(tVLREoIgEPwaHnEQxsl3s/9gEpSJwDko7e+DsEkze2l627vdu5uFRaxyHe8FosR5sCcxqMZ3iO0Rpcp0ApQPCLEasUpaEC3Yi2lS3fOojOhsr3HDmObyMtsVcYqS29Qh5FEfklwrM5OXeUa/yjkcAwfr7TDpiyTfXvjkMR+Vw2A998qaBac5tAKHU1hq3i4oNwjRr9ofvayt/+Rk+yX/4iWA159KpXWKxJx/z0Bopfyw+g4=);strokeColor=#6c8ebf;spacingTop=-1;spacingBottom=-1;spacingLeft=-1;spacingRight=-1;points=[[0.5,1,0],[0.5,0,0],[0,0.5,0],[1,0.5,0]];labelBackgroundColor=none;rounded=1;html=1;whiteSpace=wrap;fontFamily=Calibri;" parent="1" vertex="1">
            <mxGeometry x="2027.5" y="-800" width="101" height="38" as="geometry" />
          </mxCell>
        </UserObject>
        <mxCell id="Z0ikh39LYSVqTTAxaPjd-178" style="edgeStyle=orthogonalEdgeStyle;rounded=0;orthogonalLoop=1;jettySize=auto;html=1;exitX=0.5;exitY=1;exitDx=0;exitDy=0;entryX=0.5;entryY=0;entryDx=0;entryDy=0;entryPerimeter=0;" parent="1" source="Z0ikh39LYSVqTTAxaPjd-175" target="Z0ikh39LYSVqTTAxaPjd-176" edge="1">
          <mxGeometry relative="1" as="geometry" />
        </mxCell>
        <mxCell id="Z0ikh39LYSVqTTAxaPjd-175" value="&lt;font face=&quot;Calibri&quot; style=&quot;font-size: 11.26px;&quot;&gt;PIN INDEX CHECK&lt;/font&gt;" style="shape=process;whiteSpace=wrap;html=1;backgroundOutline=1;fontSize=16;fillColor=#ffe6cc;strokeColor=#d79b00;" parent="1" vertex="1">
          <mxGeometry x="2020" y="-742" width="116" height="46" as="geometry" />
        </mxCell>
        <mxCell id="Z0ikh39LYSVqTTAxaPjd-180" value="true" style="edgeStyle=orthogonalEdgeStyle;rounded=0;orthogonalLoop=1;jettySize=auto;html=1;exitX=0.5;exitY=1;exitDx=0;exitDy=0;exitPerimeter=0;entryX=0.5;entryY=0;entryDx=0;entryDy=0;fontFamily=Calibri;" parent="1" source="Z0ikh39LYSVqTTAxaPjd-176" target="Z0ikh39LYSVqTTAxaPjd-179" edge="1">
          <mxGeometry relative="1" as="geometry" />
        </mxCell>
        <mxCell id="Z0ikh39LYSVqTTAxaPjd-185" value="false" style="edgeStyle=orthogonalEdgeStyle;rounded=0;orthogonalLoop=1;jettySize=auto;html=1;exitX=1;exitY=0.5;exitDx=0;exitDy=0;exitPerimeter=0;entryX=0.5;entryY=0;entryDx=0;entryDy=0;entryPerimeter=0;" parent="1" source="Z0ikh39LYSVqTTAxaPjd-176" target="Z0ikh39LYSVqTTAxaPjd-184" edge="1">
          <mxGeometry relative="1" as="geometry" />
        </mxCell>
        <UserObject label="if ptr function != NULL PTR" Function="EN_DIO_Error_T DIO_init(uint8_t pinNumber, EN_DIO_PORT_T portNumber, EN_DIO_DIRECTION_T direction);" tags="Flowchart" id="Z0ikh39LYSVqTTAxaPjd-176">
          <mxCell style="vsdxID=219;fillColor=#fff2cc;shape=stencil(UzV2Ls5ILEhVNTIoLinKz04tz0wpyVA1dlE1MsrMy0gtyiwBslSNXVWNndPyi1LTi/JL81Ig/IJEkEoQKze/DGRCBUSfAUiHkUElhGcK4bpBVOZk5iGpNEVVikeloQHZpsK0YlWLz1QgA+HFtMycHEgIIcujBwlQCBKcxq4A);strokeColor=#d6b656;spacingTop=-1;spacingBottom=-1;spacingLeft=-1;spacingRight=-1;points=[[0,0.5,0],[1,0.5,0],[0.5,0,0],[0.5,1,0]];labelBackgroundColor=none;rounded=1;html=1;whiteSpace=wrap;fontFamily=Calibri;fontSize=11.29;" parent="1" vertex="1">
            <mxGeometry x="1980.25" y="-673" width="195.5" height="40" as="geometry" />
          </mxCell>
        </UserObject>
        <mxCell id="Z0ikh39LYSVqTTAxaPjd-182" style="edgeStyle=orthogonalEdgeStyle;rounded=0;orthogonalLoop=1;jettySize=auto;html=1;exitX=0.5;exitY=1;exitDx=0;exitDy=0;entryX=0.5;entryY=0;entryDx=0;entryDy=0;entryPerimeter=0;" parent="1" source="Z0ikh39LYSVqTTAxaPjd-179" target="Z0ikh39LYSVqTTAxaPjd-181" edge="1">
          <mxGeometry relative="1" as="geometry" />
        </mxCell>
        <mxCell id="Z0ikh39LYSVqTTAxaPjd-179" value="assigns callback function to the interrupt handler" style="rounded=0;whiteSpace=wrap;html=1;fontSize=11.26;fillColor=#d5e8d4;strokeColor=#82b366;fontFamily=Calibri;" parent="1" vertex="1">
          <mxGeometry x="2015.01" y="-603.25" width="125.99" height="33.25" as="geometry" />
        </mxCell>
        <UserObject label="&lt;div style=&quot;font-size: 1px&quot;&gt;&lt;font style=&quot;font-size: 11.29px; direction: ltr; letter-spacing: 0px; line-height: 120%; opacity: 1;&quot;&gt;ERROR_OK&lt;/font&gt;&lt;/div&gt;" Function="EN_DIO_Error_T DIO_init(uint8_t pinNumber, EN_DIO_PORT_T portNumber, EN_DIO_DIRECTION_T direction);" tags="Flowchart" id="Z0ikh39LYSVqTTAxaPjd-181">
          <mxCell style="verticalAlign=middle;align=center;overflow=width;vsdxID=52;fillColor=#d5e8d4;shape=stencil(tVLREoIgEPwaHnEQxsl3s/9gEpSJwDko7e+DsEkze2l627vdu5uFRaxyHe8FosR5sCcxqMZ3iO0Rpcp0ApQPCLEasUpaEC3Yi2lS3fOojOhsr3HDmObyMtsVcYqS29Qh5FEfklwrM5OXeUa/yjkcAwfr7TDpiyTfXvjkMR+Vw2A998qaBac5tAKHU1hq3i4oNwjRr9ofvayt/+Rk+yX/4iWA159KpXWKxJx/z0Bopfyw+g4=);strokeColor=#82b366;spacingTop=-1;spacingBottom=-1;spacingLeft=-1;spacingRight=-1;points=[[0.5,1,0],[0.5,0,0],[0,0.5,0],[1,0.5,0]];labelBackgroundColor=none;rounded=1;html=1;whiteSpace=wrap;fontFamily=Calibri;" parent="1" vertex="1">
            <mxGeometry x="2027.5" y="-544" width="101" height="38" as="geometry" />
          </mxCell>
        </UserObject>
        <UserObject label="PASSING_NULL_PTR" Function="EN_DIO_Error_T DIO_init(uint8_t pinNumber, EN_DIO_PORT_T portNumber, EN_DIO_DIRECTION_T direction);" tags="Flowchart" id="Z0ikh39LYSVqTTAxaPjd-184">
          <mxCell style="verticalAlign=middle;align=center;overflow=width;vsdxID=52;fillColor=#f8cecc;shape=stencil(tVLREoIgEPwaHnEQxsl3s/9gEpSJwDko7e+DsEkze2l627vdu5uFRaxyHe8FosR5sCcxqMZ3iO0Rpcp0ApQPCLEasUpaEC3Yi2lS3fOojOhsr3HDmObyMtsVcYqS29Qh5FEfklwrM5OXeUa/yjkcAwfr7TDpiyTfXvjkMR+Vw2A998qaBac5tAKHU1hq3i4oNwjRr9ofvayt/+Rk+yX/4iWA159KpXWKxJx/z0Bopfyw+g4=);strokeColor=#b85450;spacingTop=-1;spacingBottom=-1;spacingLeft=-1;spacingRight=-1;points=[[0.5,1,0],[0.5,0,0],[0,0.5,0],[1,0.5,0]];labelBackgroundColor=none;rounded=1;html=1;whiteSpace=wrap;fontFamily=Calibri;" parent="1" vertex="1">
            <mxGeometry x="2175.75" y="-544" width="122.02" height="38" as="geometry" />
          </mxCell>
        </UserObject>
        <mxCell id="Z0ikh39LYSVqTTAxaPjd-186" value="&lt;h1&gt;&lt;font face=&quot;Calibri&quot;&gt;gpio_pin_init&lt;/font&gt;&lt;/h1&gt;" style="text;html=1;strokeColor=none;fillColor=none;spacing=5;spacingTop=-20;whiteSpace=wrap;overflow=hidden;rounded=0;" parent="1" vertex="1">
          <mxGeometry x="199.37" y="-890" width="140" height="40" as="geometry" />
        </mxCell>
        <mxCell id="Z0ikh39LYSVqTTAxaPjd-187" value="&lt;h1&gt;&lt;font face=&quot;Calibri&quot;&gt;gpio_pin_read&lt;/font&gt;&lt;/h1&gt;" style="text;html=1;strokeColor=none;fillColor=none;spacing=5;spacingTop=-20;whiteSpace=wrap;overflow=hidden;rounded=0;" parent="1" vertex="1">
          <mxGeometry x="1402.01" y="-883" width="151.99" height="40" as="geometry" />
        </mxCell>
        <mxCell id="Z0ikh39LYSVqTTAxaPjd-188" value="&lt;h1&gt;&lt;font face=&quot;Calibri&quot;&gt;gpio_pin_enable_notification&lt;/font&gt;&lt;/h1&gt;" style="text;html=1;strokeColor=none;fillColor=none;spacing=5;spacingTop=-20;whiteSpace=wrap;overflow=hidden;rounded=0;" parent="1" vertex="1">
          <mxGeometry x="1624" y="-890" width="308" height="40" as="geometry" />
        </mxCell>
        <mxCell id="Z0ikh39LYSVqTTAxaPjd-189" value="&lt;h1&gt;&lt;font face=&quot;Calibri&quot;&gt;gpio_pin_set_callback&lt;/font&gt;&lt;/h1&gt;" style="text;html=1;strokeColor=none;fillColor=none;spacing=5;spacingTop=-20;whiteSpace=wrap;overflow=hidden;rounded=0;" parent="1" vertex="1">
          <mxGeometry x="1961.76" y="-890" width="232.5" height="40" as="geometry" />
        </mxCell>
        <mxCell id="Z0ikh39LYSVqTTAxaPjd-190" value="&lt;h1&gt;&lt;font face=&quot;Calibri&quot;&gt;gpio_pin_write&lt;/font&gt;&lt;/h1&gt;" style="text;html=1;strokeColor=none;fillColor=none;spacing=5;spacingTop=-20;whiteSpace=wrap;overflow=hidden;rounded=0;" parent="1" vertex="1">
          <mxGeometry x="292.86" y="-30" width="162.26" height="40" as="geometry" />
        </mxCell>
        <mxCell id="Z0ikh39LYSVqTTAxaPjd-191" value="&lt;h1&gt;&lt;font face=&quot;Calibri&quot;&gt;gpio_pin_toggle&lt;/font&gt;&lt;/h1&gt;" style="text;html=1;strokeColor=none;fillColor=none;spacing=5;spacingTop=-20;whiteSpace=wrap;overflow=hidden;rounded=0;" parent="1" vertex="1">
          <mxGeometry x="931.05" y="-30" width="173.38" height="40" as="geometry" />
        </mxCell>
      </root>
    </mxGraphModel>
  </diagram>
</mxfile>
